<svg class="dn" height="0" version="1.1" width="0"
  xmlns="http://www.w3.org/2000/svg">
  <defs>
	<g id="cosmetica">
    <path d="M 3.679688 7.28125 L 3.921875 7.28125 L 4.25 8.058594 L 4.582031 7.28125 L 4.824219 7.28125 L 4.824219 8.335938 L 4.617188 8.335938 L 4.617188 7.652344 L 4.320312 8.335938 L 4.160156 8.335938 L 3.886719 7.652344 L 3.886719 8.335938 L 3.679688 8.335938 Z M 3.679688 7.28125 " fill="currentColor"/>
    <path d="M 5.335938 7.492188 C 5.472656 7.492188 5.554688 7.550781 5.613281 7.617188 L 5.613281 7.503906 L 5.816406 7.503906 L 5.816406 8.335938 L 5.613281 8.335938 L 5.613281 8.210938 C 5.566406 8.277344 5.472656 8.347656 5.335938 8.347656 C 5.132812 8.347656 4.960938 8.175781 4.960938 7.921875 C 4.960938 7.652344 5.121094 7.492188 5.335938 7.492188 Z M 5.382812 7.675781 C 5.269531 7.675781 5.164062 7.757812 5.164062 7.921875 C 5.164062 8.082031 5.269531 8.164062 5.382812 8.164062 C 5.496094 8.164062 5.601562 8.070312 5.601562 7.921875 C 5.601562 7.769531 5.496094 7.675781 5.382812 7.675781 Z M 5.382812 7.675781 " fill="currentColor"/>
    <path d="M 6.058594 7.675781 L 5.953125 7.675781 L 5.953125 7.503906 L 6.058594 7.503906 L 6.058594 7.292969 L 6.261719 7.292969 L 6.261719 7.503906 L 6.445312 7.503906 L 6.445312 7.675781 L 6.261719 7.675781 L 6.261719 8.082031 C 6.261719 8.140625 6.285156 8.164062 6.355469 8.164062 L 6.445312 8.164062 L 6.445312 8.335938 L 6.320312 8.335938 C 6.160156 8.335938 6.058594 8.265625 6.058594 8.082031 Z M 6.058594 7.675781 " fill="currentColor"/>
    <path d="M 6.960938 8.347656 C 6.71875 8.347656 6.546875 8.175781 6.546875 7.921875 C 6.546875 7.652344 6.71875 7.492188 6.960938 7.492188 C 7.199219 7.492188 7.359375 7.652344 7.359375 7.910156 C 7.359375 7.929688 7.359375 7.964844 7.347656 7.988281 L 6.742188 7.988281 C 6.753906 8.117188 6.835938 8.1875 6.9375 8.1875 C 7.027344 8.1875 7.074219 8.140625 7.097656 8.082031 L 7.324219 8.082031 C 7.292969 8.234375 7.152344 8.347656 6.960938 8.347656 Z M 6.753906 7.839844 L 7.144531 7.839844 C 7.144531 7.734375 7.050781 7.664062 6.949219 7.664062 C 6.847656 7.664062 6.765625 7.722656 6.753906 7.839844 Z M 6.753906 7.839844 " fill="currentColor"/>
    <path d="M 7.714844 8.335938 L 7.507812 8.335938 L 7.507812 7.503906 L 7.714844 7.503906 L 7.714844 7.628906 C 7.769531 7.550781 7.851562 7.492188 7.964844 7.492188 L 7.964844 7.710938 L 7.910156 7.710938 C 7.78125 7.710938 7.714844 7.757812 7.714844 7.921875 Z M 7.714844 8.335938 " fill="currentColor"/>
    <path d="M 8.6875 7.875 C 8.6875 7.734375 8.617188 7.664062 8.503906 7.664062 C 8.386719 7.664062 8.320312 7.734375 8.320312 7.875 L 8.320312 8.335938 L 8.113281 8.335938 L 8.113281 7.503906 L 8.320312 7.503906 L 8.320312 7.605469 C 8.378906 7.539062 8.457031 7.492188 8.570312 7.492188 C 8.765625 7.492188 8.902344 7.617188 8.902344 7.851562 L 8.902344 8.335938 L 8.6875 8.335938 Z M 8.6875 7.875 " fill="currentColor"/>
    <path d="M 9.074219 7.28125 C 9.074219 7.214844 9.132812 7.15625 9.199219 7.15625 C 9.269531 7.15625 9.324219 7.214844 9.324219 7.28125 C 9.324219 7.351562 9.269531 7.410156 9.199219 7.410156 C 9.121094 7.398438 9.074219 7.351562 9.074219 7.28125 Z M 9.097656 7.503906 L 9.304688 7.503906 L 9.304688 8.335938 L 9.097656 8.335938 Z M 9.097656 7.503906 " fill="currentColor"/>
    <path d="M 9.828125 7.492188 C 9.929688 7.492188 10.046875 7.539062 10.101562 7.617188 L 10.101562 7.226562 L 10.308594 7.226562 L 10.308594 8.335938 L 10.101562 8.335938 L 10.101562 8.210938 C 10.058594 8.289062 9.964844 8.347656 9.828125 8.347656 C 9.621094 8.347656 9.453125 8.175781 9.453125 7.921875 C 9.453125 7.652344 9.621094 7.492188 9.828125 7.492188 Z M 9.886719 7.675781 C 9.769531 7.675781 9.667969 7.757812 9.667969 7.921875 C 9.667969 8.082031 9.769531 8.164062 9.886719 8.164062 C 10 8.164062 10.101562 8.070312 10.101562 7.921875 C 10.101562 7.769531 10 7.675781 9.886719 7.675781 Z M 9.886719 7.675781 " fill="currentColor"/>
    <path d="M 10.835938 7.492188 C 10.972656 7.492188 11.050781 7.550781 11.109375 7.617188 L 11.109375 7.503906 L 11.3125 7.503906 L 11.3125 8.335938 L 11.109375 8.335938 L 11.109375 8.210938 C 11.0625 8.277344 10.972656 8.347656 10.835938 8.347656 C 10.628906 8.347656 10.457031 8.175781 10.457031 7.921875 C 10.457031 7.652344 10.628906 7.492188 10.835938 7.492188 Z M 10.890625 7.675781 C 10.777344 7.675781 10.675781 7.757812 10.675781 7.921875 C 10.675781 8.082031 10.777344 8.164062 10.890625 8.164062 C 11.003906 8.164062 11.109375 8.070312 11.109375 7.921875 C 11.109375 7.769531 11.003906 7.675781 10.890625 7.675781 Z M 10.890625 7.675781 " fill="currentColor"/>
    <path d="M 11.839844 7.492188 C 11.941406 7.492188 12.058594 7.539062 12.113281 7.617188 L 12.113281 7.226562 L 12.320312 7.226562 L 12.320312 8.335938 L 12.113281 8.335938 L 12.113281 8.210938 C 12.070312 8.289062 11.976562 8.347656 11.839844 8.347656 C 11.632812 8.347656 11.460938 8.175781 11.460938 7.921875 C 11.460938 7.652344 11.632812 7.492188 11.839844 7.492188 Z M 11.898438 7.675781 C 11.78125 7.675781 11.679688 7.757812 11.679688 7.921875 C 11.679688 8.082031 11.78125 8.164062 11.898438 8.164062 C 12.011719 8.164062 12.113281 8.070312 12.113281 7.921875 C 12.113281 7.769531 12.011719 7.675781 11.898438 7.675781 Z M 11.898438 7.675781 " fill="currentColor"/>
    <path d="M 5.738281 9.585938 L 5.953125 9.585938 L 5.441406 10.816406 L 5.222656 10.816406 L 5.40625 10.398438 L 5.074219 9.585938 L 5.304688 9.585938 L 5.519531 10.167969 Z M 5.738281 9.585938 " fill="currentColor"/>
    <path d="M 6.867188 10.421875 L 6.421875 10.421875 L 6.421875 9.367188 L 6.855469 9.367188 C 7.074219 9.367188 7.199219 9.484375 7.199219 9.632812 C 7.199219 9.761719 7.121094 9.84375 7.027344 9.875 C 7.144531 9.898438 7.234375 10.003906 7.234375 10.132812 C 7.210938 10.304688 7.085938 10.421875 6.867188 10.421875 Z M 6.824219 9.542969 L 6.628906 9.542969 L 6.628906 9.808594 L 6.824219 9.808594 C 6.925781 9.808594 6.984375 9.761719 6.984375 9.679688 C 6.984375 9.585938 6.925781 9.542969 6.824219 9.542969 Z M 6.835938 9.96875 L 6.628906 9.96875 L 6.628906 10.246094 L 6.835938 10.246094 C 6.9375 10.246094 6.996094 10.199219 6.996094 10.109375 C 7.003906 10.015625 6.9375 9.96875 6.835938 9.96875 Z M 6.835938 9.96875 " fill="currentColor"/>
    <path d="M 7.738281 10.433594 C 7.496094 10.433594 7.324219 10.257812 7.324219 10.003906 C 7.324219 9.738281 7.496094 9.574219 7.738281 9.574219 C 7.976562 9.574219 8.136719 9.738281 8.136719 9.992188 C 8.136719 10.015625 8.136719 10.050781 8.125 10.074219 L 7.542969 10.074219 C 7.554688 10.199219 7.632812 10.269531 7.738281 10.269531 C 7.828125 10.269531 7.875 10.222656 7.898438 10.167969 L 8.125 10.167969 C 8.078125 10.316406 7.941406 10.433594 7.738281 10.433594 Z M 7.542969 9.921875 L 7.929688 9.921875 C 7.929688 9.820312 7.839844 9.75 7.738281 9.75 C 7.632812 9.75 7.554688 9.808594 7.542969 9.921875 Z M 7.542969 9.921875 " fill="currentColor"/>
    <path d="M 8.777344 9.574219 C 8.984375 9.574219 9.152344 9.738281 9.152344 10.003906 C 9.152344 10.257812 8.996094 10.433594 8.777344 10.433594 C 8.652344 10.433594 8.558594 10.375 8.503906 10.304688 L 8.503906 10.421875 L 8.296875 10.421875 L 8.296875 9.308594 L 8.503906 9.308594 L 8.503906 9.714844 C 8.558594 9.632812 8.652344 9.574219 8.777344 9.574219 Z M 8.71875 9.761719 C 8.605469 9.761719 8.503906 9.855469 8.503906 10.003906 C 8.503906 10.15625 8.605469 10.246094 8.71875 10.246094 C 8.835938 10.246094 8.9375 10.15625 8.9375 10.003906 C 8.9375 9.84375 8.835938 9.761719 8.71875 9.761719 Z M 8.71875 9.761719 " fill="currentColor"/>
    <path d="M 9.667969 10.433594 C 9.429688 10.433594 9.257812 10.257812 9.257812 10.003906 C 9.257812 9.738281 9.429688 9.574219 9.667969 9.574219 C 9.910156 9.574219 10.070312 9.738281 10.070312 9.992188 C 10.070312 10.015625 10.070312 10.050781 10.058594 10.074219 L 9.453125 10.074219 C 9.460938 10.199219 9.542969 10.269531 9.644531 10.269531 C 9.738281 10.269531 9.78125 10.222656 9.804688 10.167969 L 10.035156 10.167969 C 10 10.316406 9.863281 10.433594 9.667969 10.433594 Z M 9.460938 9.921875 L 9.851562 9.921875 C 9.851562 9.820312 9.761719 9.75 9.65625 9.75 C 9.554688 9.75 9.484375 9.808594 9.460938 9.921875 Z M 9.828125 9.195312 L 9.828125 9.367188 L 9.484375 9.53125 L 9.484375 9.378906 Z M 9.828125 9.195312 " fill="currentColor"/>
    <path d="M 10.539062 10.433594 C 10.332031 10.433594 10.183594 10.304688 10.183594 10.15625 L 10.386719 10.15625 C 10.398438 10.210938 10.457031 10.269531 10.539062 10.269531 C 10.617188 10.269531 10.664062 10.234375 10.664062 10.191406 C 10.664062 10.039062 10.195312 10.132812 10.195312 9.832031 C 10.195312 9.691406 10.320312 9.574219 10.515625 9.574219 C 10.707031 9.574219 10.835938 9.679688 10.847656 9.855469 L 10.652344 9.855469 C 10.640625 9.785156 10.59375 9.75 10.515625 9.75 C 10.433594 9.75 10.398438 9.785156 10.398438 9.832031 C 10.398438 9.980469 10.855469 9.886719 10.855469 10.191406 C 10.855469 10.328125 10.742188 10.433594 10.539062 10.433594 Z M 10.539062 10.433594 " fill="currentColor"/>
    <path d="M 10.078125 1.886719 C 10.070312 1.886719 10.058594 1.886719 10.046875 1.875 C 10 1.851562 9.976562 1.804688 10 1.761719 C 10.089844 1.550781 10.113281 1.296875 10.070312 1.066406 C 10.058594 1.019531 10.089844 0.960938 10.136719 0.960938 C 10.183594 0.949219 10.238281 0.984375 10.238281 1.03125 C 10.296875 1.296875 10.273438 1.585938 10.160156 1.828125 C 10.148438 1.875 10.113281 1.886719 10.078125 1.886719 Z M 10.078125 1.886719 " fill="currentColor"/>
    <path d="M 8.503906 3.148438 C 8.480469 3.148438 8.457031 3.136719 8.433594 3.125 C 8.398438 3.089844 8.398438 3.035156 8.433594 3 C 8.765625 2.664062 9.210938 2.464844 9.738281 2.421875 C 9.988281 2.398438 10.238281 2.28125 10.410156 2.097656 C 10.503906 2.003906 10.582031 1.886719 10.640625 1.761719 C 10.730469 1.550781 10.753906 1.296875 10.707031 1.066406 C 10.664062 0.84375 10.546875 0.636719 10.386719 0.476562 C 10.171875 0.265625 9.886719 0.160156 9.589844 0.171875 C 9.292969 0.183594 9.015625 0.3125 8.824219 0.519531 C 8.652344 0.71875 8.546875 0.972656 8.539062 1.226562 C 8.527344 1.679688 8.332031 2.117188 8 2.464844 L 8.230469 2.699219 C 8.261719 2.734375 8.261719 2.789062 8.230469 2.824219 C 8.195312 2.859375 8.136719 2.859375 8.101562 2.824219 L 7.816406 2.535156 C 7.78125 2.5 7.78125 2.441406 7.816406 2.410156 L 7.851562 2.375 C 8.171875 2.050781 8.355469 1.644531 8.367188 1.226562 C 8.378906 0.914062 8.492188 0.625 8.695312 0.394531 C 8.925781 0.140625 9.246094 0 9.589844 -0.0234375 C 9.929688 -0.0351562 10.273438 0.09375 10.527344 0.335938 C 10.71875 0.519531 10.847656 0.753906 10.902344 1.019531 C 10.960938 1.285156 10.9375 1.574219 10.824219 1.816406 C 10.753906 1.96875 10.675781 2.097656 10.558594 2.210938 C 10.34375 2.429688 10.070312 2.558594 9.769531 2.582031 C 9.292969 2.617188 8.878906 2.800781 8.582031 3.101562 C 8.546875 3.136719 8.527344 3.148438 8.503906 3.148438 Z M 8.503906 3.148438 " fill="currentColor"/>
    <path d="M 9.738281 4.539062 C 9.65625 4.621094 9.554688 4.65625 9.417969 4.65625 C 9.269531 4.65625 9.074219 4.597656 8.867188 4.503906 C 8.8125 4.480469 8.753906 4.445312 8.695312 4.421875 C 8.570312 4.355469 8.433594 4.273438 8.296875 4.167969 C 8.238281 4.132812 8.183594 4.085938 8.136719 4.050781 C 7.921875 3.890625 7.703125 3.695312 7.496094 3.472656 C 7.292969 3.265625 7.109375 3.046875 6.9375 2.824219 C 6.890625 2.765625 6.855469 2.710938 6.8125 2.652344 C 6.71875 2.511719 6.628906 2.375 6.558594 2.246094 C 6.527344 2.1875 6.503906 2.128906 6.480469 2.074219 C 6.308594 1.691406 6.273438 1.367188 6.445312 1.191406 C 6.765625 0.867188 7.542969 1.261719 8.21875 1.816406 C 8.25 1.839844 8.273438 1.863281 8.308594 1.898438 C 8.34375 1.921875 8.355469 1.980469 8.332031 2.015625 C 8.332031 2.015625 8.332031 2.027344 8.320312 2.027344 C 8.285156 2.0625 8.230469 2.074219 8.195312 2.039062 C 8.171875 2.027344 8.160156 2.003906 8.136719 1.992188 C 7.382812 1.34375 6.753906 1.144531 6.582031 1.320312 C 6.46875 1.4375 6.515625 1.714844 6.695312 2.085938 C 6.695312 2.085938 6.695312 2.097656 6.707031 2.097656 C 6.800781 2.269531 6.914062 2.453125 7.050781 2.652344 C 7.050781 2.652344 7.0625 2.664062 7.0625 2.664062 C 7.222656 2.871094 7.40625 3.101562 7.632812 3.324219 C 8.035156 3.738281 8.480469 4.074219 8.847656 4.261719 C 8.847656 4.261719 8.855469 4.261719 8.867188 4.273438 C 9.085938 4.386719 9.28125 4.445312 9.429688 4.445312 C 9.507812 4.445312 9.578125 4.421875 9.621094 4.386719 C 9.714844 4.296875 9.691406 4.132812 9.65625 4.007812 C 9.644531 3.960938 9.667969 3.914062 9.726562 3.890625 C 9.769531 3.878906 9.828125 3.914062 9.839844 3.960938 C 9.898438 4.296875 9.816406 4.457031 9.738281 4.539062 Z M 9.738281 4.539062 " fill="currentColor"/>
    <path d="M 9.589844 3.71875 C 9.566406 3.71875 9.542969 3.707031 9.519531 3.695312 C 9.507812 3.671875 9.496094 3.648438 9.496094 3.625 C 9.496094 3.601562 9.507812 3.578125 9.519531 3.554688 C 9.554688 3.519531 9.613281 3.519531 9.644531 3.554688 C 9.667969 3.578125 9.667969 3.601562 9.667969 3.625 C 9.667969 3.648438 9.65625 3.671875 9.644531 3.695312 C 9.632812 3.707031 9.621094 3.71875 9.589844 3.71875 Z M 9.589844 3.71875 " fill="currentColor"/>
    <path d="M 9.40625 3.382812 C 9.371094 3.382812 9.347656 3.371094 9.324219 3.335938 C 9.210938 3.148438 9.074219 2.953125 8.914062 2.765625 C 8.878906 2.734375 8.890625 2.675781 8.925781 2.640625 C 8.960938 2.605469 9.015625 2.617188 9.050781 2.652344 C 9.210938 2.847656 9.359375 3.046875 9.484375 3.242188 C 9.507812 3.289062 9.496094 3.347656 9.460938 3.371094 C 9.441406 3.382812 9.429688 3.382812 9.40625 3.382812 Z M 9.40625 3.382812 " fill="currentColor"/>
    <path d="M 8.902344 4.386719 C 8.890625 4.421875 8.890625 4.46875 8.878906 4.503906 C 8.789062 4.828125 8.628906 5.128906 8.386719 5.359375 C 8.035156 5.730469 7.554688 5.929688 7.039062 5.929688 C 6.527344 5.929688 6.035156 5.71875 5.667969 5.347656 C 4.914062 4.574219 4.902344 3.335938 5.65625 2.570312 C 5.898438 2.328125 6.183594 2.164062 6.503906 2.074219 C 6.539062 2.0625 6.582031 2.050781 6.617188 2.050781 C 6.652344 2.039062 6.695312 2.0625 6.707031 2.085938 C 6.707031 2.085938 6.707031 2.097656 6.71875 2.097656 C 6.71875 2.097656 6.71875 2.105469 6.71875 2.105469 C 6.730469 2.152344 6.695312 2.210938 6.652344 2.222656 C 6.628906 2.222656 6.605469 2.234375 6.582031 2.234375 C 6.285156 2.304688 6.011719 2.464844 5.78125 2.699219 C 5.109375 3.382812 5.109375 4.515625 5.792969 5.210938 C 6.125 5.546875 6.570312 5.742188 7.039062 5.742188 C 7.507812 5.742188 7.929688 5.558594 8.261719 5.234375 C 8.480469 5.003906 8.640625 4.722656 8.707031 4.421875 C 8.71875 4.398438 8.71875 4.375 8.71875 4.355469 C 8.730469 4.308594 8.777344 4.273438 8.824219 4.285156 C 8.824219 4.285156 8.835938 4.285156 8.835938 4.285156 C 8.835938 4.285156 8.847656 4.285156 8.855469 4.296875 C 8.890625 4.320312 8.902344 4.355469 8.902344 4.386719 Z M 8.902344 4.386719 " fill="currentColor"/>
    <path d="M 8.320312 4.085938 C 8.320312 4.109375 8.320312 4.144531 8.308594 4.167969 C 8.273438 4.445312 8.136719 4.710938 7.941406 4.921875 C 7.703125 5.164062 7.371094 5.304688 7.027344 5.304688 C 6.675781 5.304688 6.34375 5.164062 6.089844 4.910156 C 5.578125 4.386719 5.578125 3.542969 6.078125 3.023438 C 6.285156 2.8125 6.539062 2.6875 6.8125 2.652344 C 6.867188 2.640625 6.925781 2.640625 6.984375 2.640625 C 7.003906 2.640625 7.027344 2.652344 7.050781 2.664062 C 7.050781 2.664062 7.0625 2.675781 7.0625 2.675781 C 7.074219 2.6875 7.074219 2.710938 7.074219 2.722656 C 7.074219 2.765625 7.039062 2.8125 6.984375 2.8125 C 6.972656 2.8125 6.949219 2.8125 6.9375 2.8125 C 6.664062 2.824219 6.398438 2.941406 6.207031 3.136719 C 5.769531 3.578125 5.769531 4.308594 6.21875 4.757812 C 6.433594 4.980469 6.71875 5.09375 7.015625 5.09375 C 7.3125 5.09375 7.601562 4.980469 7.804688 4.757812 C 7.988281 4.574219 8.101562 4.320312 8.125 4.050781 C 8.125 4.042969 8.125 4.03125 8.136719 4.03125 C 8.148438 3.996094 8.183594 3.972656 8.230469 3.972656 C 8.285156 3.996094 8.320312 4.03125 8.320312 4.085938 Z M 8.320312 4.085938 " fill="currentColor"/>
		
	</g>
  </defs>
</svg>