<?xml version="1.0" encoding="utf-8"?>
<!-- Generator: Adobe Illustrator 26.0.2, SVG Export Plug-In . SVG Version: 6.00 Build 0)  -->
<svg version="1.1" xmlns="http://www.w3.org/2000/svg" xmlns:xlink="http://www.w3.org/1999/xlink" x="0px" y="0px"
	 viewBox="0 0 140 95" style="enable-background:new 0 0 140 95;" xml:space="preserve">
<style type="text/css">
	.st0{fill:#E20613;}
	.st1{fill:none;stroke:#E20613;stroke-width:1.4;stroke-linecap:round;stroke-linejoin:round;stroke-miterlimit:10;}
	.st2{fill:#E20613;stroke:#606060;stroke-width:1.4;stroke-linecap:round;stroke-linejoin:round;stroke-miterlimit:10;}
	.st3{fill:#FFFFFF;stroke:#606060;stroke-width:1.4;stroke-linecap:round;stroke-linejoin:round;stroke-miterlimit:10;}
	.st4{fill:#606060;}
	.st5{opacity:0.15;}
	.st6{fill-rule:evenodd;clip-rule:evenodd;fill:#211E1F;}
	.st7{fill:#FFFFFF;}
	.st8{clip-path:url(#SVGID_00000030457069830966553430000005327162372642479760_);}
	.st9{fill:#E0232F;}
	.st10{fill:#FFDC00;}
	.st11{fill:#221F1F;}
	.st12{fill-rule:evenodd;clip-rule:evenodd;fill:#E0232F;}
	.st13{fill:#4F4F51;}
	.st14{fill:#4D4D4D;}
	.st15{fill:none;stroke:#606060;stroke-width:1.2;stroke-miterlimit:10;}
	.st16{fill:#E20613;stroke:#606060;stroke-width:1.2;stroke-miterlimit:10;}
	.st17{fill:none;stroke:#E20613;stroke-width:1.2;stroke-linecap:round;stroke-miterlimit:10;}
	.st18{fill:none;stroke:#606060;stroke-width:1.2;stroke-linecap:round;stroke-linejoin:round;stroke-miterlimit:10;}
	.st19{fill:none;stroke:#606060;stroke-width:1.2;stroke-linecap:round;stroke-miterlimit:10;}
	.st20{fill:#333333;}
	.st21{fill:none;stroke:#000000;stroke-width:1.2;stroke-miterlimit:10;}
	.st22{fill:none;stroke:#606060;stroke-miterlimit:10;}
	.st23{fill:#606060;stroke:#606060;stroke-width:0.5;stroke-miterlimit:10;}
	.st24{fill:none;stroke:#606060;stroke-width:1.4;stroke-linecap:round;stroke-linejoin:round;stroke-miterlimit:10;}
	.st25{fill:none;stroke:#464646;stroke-width:1.4;stroke-linecap:round;stroke-linejoin:round;stroke-miterlimit:10;}
	.st26{fill:#464646;}
	.st27{fill:#474747;}
	.st28{fill:#606060;stroke:#606060;stroke-width:0.15;stroke-miterlimit:10;}
	.st29{fill:none;stroke:#000000;stroke-width:1.4;stroke-linecap:round;stroke-miterlimit:10;}
	.st30{fill:#505050;}
	.st31{fill:#E20613;stroke:#606060;stroke-width:0.75;stroke-linecap:round;stroke-linejoin:round;stroke-miterlimit:10;}
	.st32{fill:none;stroke:#505050;stroke-width:2;stroke-linejoin:round;stroke-miterlimit:10;}
	.st33{fill:none;stroke:#505050;stroke-width:2;stroke-linecap:round;stroke-linejoin:round;stroke-miterlimit:10;}
	.st34{fill:none;}
	.st35{fill:#E20613;stroke:#606060;stroke-miterlimit:10;}
	.st36{fill:#FFFFFF;stroke:#47478B;stroke-width:3;stroke-linejoin:round;stroke-miterlimit:10;}
	.st37{fill:none;stroke:#47478B;stroke-width:3;stroke-linejoin:round;stroke-miterlimit:10;}
	.st38{fill:#F1F3FF;stroke:#47478B;stroke-width:3;stroke-linecap:round;stroke-linejoin:round;stroke-miterlimit:10;}
	.st39{fill:none;stroke:#354C5F;stroke-width:1.4;stroke-linecap:round;stroke-linejoin:round;stroke-miterlimit:10;}
	.st40{fill:#EA1F4B;}
	.st41{fill:none;stroke:#606060;stroke-width:1.4;stroke-linecap:round;stroke-miterlimit:10;}
	.st42{fill:#E20613;stroke:#606060;stroke-width:1.4;stroke-miterlimit:10;}
	.st43{fill:none;stroke:#606060;stroke-width:2.4902;stroke-linecap:round;stroke-miterlimit:10;}
	.st44{fill:none;stroke:#606060;stroke-width:2.4902;stroke-miterlimit:10;}
	.st45{fill:#606060;stroke:#606060;stroke-width:1.0376;stroke-miterlimit:10;}
	.st46{fill:none;stroke:#606060;stroke-width:2.9053;stroke-linecap:round;stroke-miterlimit:10;}
	.st47{fill:#E20613;stroke:#606060;stroke-width:2.9053;stroke-miterlimit:10;}
	.st48{fill:#E20613;stroke:#606060;stroke-width:1.0376;stroke-miterlimit:10;}
	.st49{fill:none;stroke:#505050;stroke-width:2.9053;stroke-linecap:round;stroke-linejoin:round;stroke-miterlimit:10;}
	.st50{fill:#E20613;stroke:#505050;stroke-width:2.9053;stroke-linecap:round;stroke-linejoin:round;stroke-miterlimit:10;}
	.st51{fill:#E20613;stroke:#606060;stroke-width:2.9053;stroke-linecap:round;stroke-linejoin:round;stroke-miterlimit:10;}
	.st52{fill:none;stroke:#606060;stroke-width:2.9053;stroke-linecap:round;stroke-linejoin:round;stroke-miterlimit:10;}
	.st53{fill:#E20613;stroke:#606060;stroke-width:2.9053;stroke-linejoin:round;stroke-miterlimit:10;}
	.st54{fill:#FFFFFF;stroke:#606060;stroke-width:2.9053;stroke-linecap:round;stroke-linejoin:round;stroke-miterlimit:10;}
	.st55{fill:none;stroke:#E20613;stroke-width:2.9053;stroke-linecap:round;stroke-linejoin:round;stroke-miterlimit:10;}
	.st56{fill:#E20613;stroke:#606060;stroke-width:2.4902;stroke-linecap:round;stroke-miterlimit:10;}
	.st57{fill:#E20613;stroke:#606060;stroke-width:1.5564;stroke-linecap:round;stroke-linejoin:round;stroke-miterlimit:10;}
	.st58{fill:none;stroke:#606060;stroke-width:2.0752;stroke-linecap:round;stroke-miterlimit:10;}
	.st59{fill:#E20613;stroke:#606060;stroke-width:2.4902;stroke-linecap:round;stroke-linejoin:round;stroke-miterlimit:10;}
	.st60{fill:none;stroke:#606060;stroke-width:2.4902;stroke-linecap:round;stroke-linejoin:round;stroke-miterlimit:10;}
	.st61{fill:none;stroke:#606060;stroke-width:2.0752;stroke-linecap:round;stroke-linejoin:round;stroke-miterlimit:10;}
</style>
<g id="Frame">
</g>
<g id="Layer_1">
	<g>
		<g>
			<path class="st4" d="M32.2,62.9h2.1l2.9,6.7l2.9-6.7h2.1V72h-1.8v-5.9L37.8,72h-1.4L34,66.1V72h-1.8V62.9z"/>
			<path class="st4" d="M46.7,64.7c1.2,0,1.9,0.5,2.4,1.1v-1h1.8V72h-1.8v-1.1c-0.4,0.6-1.2,1.2-2.4,1.2c-1.8,0-3.3-1.5-3.3-3.7
				C43.4,66.1,44.8,64.7,46.7,64.7z M47.1,66.3c-1,0-1.9,0.7-1.9,2.1c0,1.4,0.9,2.1,1.9,2.1c1,0,1.9-0.8,1.9-2.1
				S48.1,66.3,47.1,66.3z"/>
			<path class="st4" d="M53,66.3h-0.9v-1.5H53V63h1.8v1.8h1.6v1.5h-1.6v3.5c0,0.5,0.2,0.7,0.8,0.7h0.8V72h-1.1
				c-1.4,0-2.3-0.6-2.3-2.2V66.3z"/>
			<path class="st4" d="M60.9,72.1c-2.1,0-3.6-1.5-3.6-3.7c0-2.3,1.5-3.7,3.6-3.7c2.1,0,3.5,1.4,3.5,3.6c0,0.2,0,0.5-0.1,0.7h-5.3
				c0.1,1.1,0.8,1.7,1.7,1.7c0.8,0,1.2-0.4,1.4-0.9h2C63.8,71.1,62.6,72.1,60.9,72.1z M59.1,67.7h3.4c0-0.9-0.8-1.5-1.7-1.5
				C59.9,66.2,59.2,66.7,59.1,67.7z"/>
			<path class="st4" d="M67.5,72h-1.8v-7.2h1.8v1.1c0.5-0.7,1.2-1.2,2.2-1.2v1.9h-0.5c-1.1,0-1.7,0.4-1.7,1.8V72z"/>
			<path class="st4" d="M76,68c0-1.2-0.6-1.8-1.6-1.8c-1,0-1.6,0.6-1.6,1.8v4H71v-7.2h1.8v0.9c0.5-0.6,1.2-1,2.2-1
				c1.7,0,2.9,1.1,2.9,3.1V72H76V68z"/>
			<path class="st4" d="M79.4,62.9c0-0.6,0.5-1.1,1.1-1.1c0.6,0,1.1,0.5,1.1,1.1c0,0.6-0.5,1.1-1.1,1.1
				C79.8,63.9,79.4,63.5,79.4,62.9z M79.6,64.8h1.8V72h-1.8V64.8z"/>
			<path class="st4" d="M86,64.7c0.9,0,1.9,0.4,2.4,1.1v-3.4h1.8V72h-1.8v-1.1c-0.4,0.7-1.2,1.2-2.4,1.2c-1.8,0-3.3-1.5-3.3-3.7
				C82.7,66.1,84.2,64.7,86,64.7z M86.5,66.3c-1,0-1.9,0.7-1.9,2.1c0,1.4,0.9,2.1,1.9,2.1c1,0,1.9-0.8,1.9-2.1S87.5,66.3,86.5,66.3z
				"/>
			<path class="st4" d="M94.8,64.7c1.2,0,1.9,0.5,2.4,1.1v-1H99V72h-1.8v-1.1c-0.4,0.6-1.2,1.2-2.4,1.2c-1.8,0-3.3-1.5-3.3-3.7
				C91.5,66.1,93,64.7,94.8,64.7z M95.3,66.3c-1,0-1.9,0.7-1.9,2.1c0,1.4,0.9,2.1,1.9,2.1c1,0,1.9-0.8,1.9-2.1S96.3,66.3,95.3,66.3z
				"/>
			<path class="st4" d="M103.6,64.7c0.9,0,1.9,0.4,2.4,1.1v-3.4h1.8V72H106v-1.1c-0.4,0.7-1.2,1.2-2.4,1.2c-1.8,0-3.3-1.5-3.3-3.7
				C100.3,66.1,101.8,64.7,103.6,64.7z M104.1,66.3c-1,0-1.9,0.7-1.9,2.1c0,1.4,0.9,2.1,1.9,2.1c1,0,1.9-0.8,1.9-2.1
				S105.1,66.3,104.1,66.3z"/>
			<path class="st4" d="M50.2,82.8h1.9l-4.5,10.6h-1.9l1.6-3.6l-2.9-7h2l1.9,5L50.2,82.8z"/>
			<path class="st4" d="M60.1,90h-3.9v-9.1H60c1.9,0,3,1,3,2.3c0,1.1-0.7,1.8-1.5,2.1c1,0.2,1.8,1.1,1.8,2.2C63.1,89,62,90,60.1,90z
				 M59.7,82.4H58v2.3h1.7c0.9,0,1.4-0.4,1.4-1.1C61.1,82.8,60.6,82.4,59.7,82.4z M59.8,86.1H58v2.4h1.8c0.9,0,1.4-0.4,1.4-1.2
				C61.3,86.5,60.7,86.1,59.8,86.1z"/>
			<path class="st4" d="M67.7,90.1c-2.1,0-3.6-1.5-3.6-3.7c0-2.3,1.5-3.7,3.6-3.7c2.1,0,3.5,1.4,3.5,3.6c0,0.2,0,0.5-0.1,0.7H66
				c0.1,1.1,0.8,1.7,1.7,1.7c0.8,0,1.2-0.4,1.4-0.9h2C70.7,89.1,69.5,90.1,67.7,90.1z M66,85.7h3.4c0-0.9-0.8-1.5-1.7-1.5
				C66.8,84.2,66.1,84.7,66,85.7z"/>
			<path class="st4" d="M76.8,82.7c1.8,0,3.3,1.4,3.3,3.7c0,2.2-1.4,3.7-3.3,3.7c-1.1,0-1.9-0.5-2.4-1.1v1h-1.8v-9.6h1.8v3.5
				C74.9,83.2,75.7,82.7,76.8,82.7z M76.3,84.3c-1,0-1.9,0.8-1.9,2.1s0.9,2.1,1.9,2.1c1,0,1.9-0.8,1.9-2.1
				C78.2,85,77.3,84.3,76.3,84.3z"/>
			<path class="st4" d="M84.6,90.1c-2.1,0-3.6-1.5-3.6-3.7c0-2.3,1.5-3.7,3.6-3.7c2.1,0,3.5,1.4,3.5,3.6c0,0.2,0,0.5-0.1,0.7h-5.3
				c0.1,1.1,0.8,1.7,1.7,1.7c0.8,0,1.2-0.4,1.4-0.9h2C87.5,89.1,86.3,90.1,84.6,90.1z M82.8,85.7h3.4c0-0.9-0.8-1.5-1.7-1.5
				C83.6,84.2,83,84.7,82.8,85.7z M86,79.4v1.5l-3,1.4V81L86,79.4z"/>
			<path class="st4" d="M92.2,90.1c-1.8,0-3.1-1.1-3.1-2.4h1.8c0.1,0.5,0.6,1,1.3,1c0.7,0,1.1-0.3,1.1-0.7c0-1.3-4.1-0.5-4.1-3.1
				c0-1.2,1.1-2.2,2.8-2.2c1.7,0,2.8,0.9,2.9,2.4h-1.7c-0.1-0.6-0.5-0.9-1.2-0.9c-0.7,0-1,0.3-1,0.7c0,1.3,4,0.5,4,3.1
				C95,89.2,94,90.1,92.2,90.1z"/>
		</g>
	</g>
	<g>
		<g>
			<g>
				<path class="st4" d="M88.2,16.3c-0.1,0-0.2,0-0.3-0.1c-0.4-0.2-0.6-0.6-0.4-1c0.8-1.8,1-4,0.6-6c-0.1-0.4,0.2-0.9,0.6-0.9
					c0.4-0.1,0.9,0.2,0.9,0.6c0.5,2.3,0.3,4.8-0.7,6.9C88.8,16.2,88.5,16.3,88.2,16.3z"/>
			</g>
		</g>
	</g>
	<g>
		<g>
			<g>
				<path class="st4" d="M74.4,27.2c-0.2,0-0.4-0.1-0.6-0.2c-0.3-0.3-0.3-0.8,0-1.1c2.9-2.9,6.8-4.6,11.4-5c2.2-0.2,4.4-1.2,5.9-2.8
					c0.8-0.8,1.5-1.8,2-2.9c0.8-1.8,1-4,0.6-6c-0.4-1.9-1.4-3.7-2.8-5.1c-1.9-1.8-4.4-2.7-7-2.6c-2.6,0.1-5,1.2-6.7,3
					c-1.5,1.7-2.4,3.9-2.5,6.1c-0.1,3.9-1.8,7.7-4.7,10.7l2,2c0.3,0.3,0.3,0.8,0,1.1c-0.3,0.3-0.8,0.3-1.1,0l-2.5-2.5
					c-0.3-0.3-0.3-0.8,0-1.1l0.3-0.3c2.8-2.8,4.4-6.3,4.5-9.9c0.1-2.7,1.1-5.2,2.9-7.2c2-2.2,4.8-3.4,7.8-3.6c3-0.1,6,1,8.2,3.1
					c1.7,1.6,2.8,3.6,3.3,5.9c0.5,2.3,0.3,4.8-0.7,6.9c-0.6,1.3-1.3,2.4-2.3,3.4c-1.9,1.9-4.3,3-6.9,3.2c-4.2,0.3-7.8,1.9-10.4,4.5
					C74.8,27.1,74.6,27.2,74.4,27.2z"/>
			</g>
		</g>
	</g>
	<g>
		<g>
			<g>
				<path class="st4" d="M85.2,39.2c-0.7,0.7-1.6,1-2.8,1c-1.3,0-3-0.5-4.8-1.3c-0.5-0.2-1-0.5-1.5-0.7c-1.1-0.6-2.3-1.3-3.5-2.2
					c-0.5-0.3-1-0.7-1.4-1c-1.9-1.4-3.8-3.1-5.6-5c-1.8-1.8-3.4-3.7-4.9-5.6c-0.4-0.5-0.7-1-1.1-1.5c-0.8-1.2-1.6-2.4-2.2-3.5
					c-0.3-0.5-0.5-1-0.7-1.5c-1.5-3.3-1.8-6.1-0.3-7.6c2.8-2.8,9.6,0.6,15.5,5.4c0.3,0.2,0.5,0.4,0.8,0.7c0.3,0.2,0.4,0.7,0.2,1
					c0,0,0,0.1-0.1,0.1c-0.3,0.3-0.8,0.4-1.1,0.1c-0.2-0.1-0.3-0.3-0.5-0.4c-6.6-5.6-12.1-7.3-13.6-5.8c-1,1-0.6,3.4,1,6.6
					c0,0,0,0.1,0.1,0.1c0.8,1.5,1.8,3.1,3,4.8c0,0,0.1,0.1,0.1,0.1c1.4,1.8,3,3.8,5,5.7c3.5,3.6,7.4,6.5,10.6,8.1c0,0,0.1,0,0.2,0.1
					c1.9,1,3.6,1.5,4.9,1.5c0.7,0,1.3-0.2,1.7-0.5c0.8-0.8,0.6-2.2,0.3-3.3c-0.1-0.4,0.1-0.8,0.6-1c0.4-0.1,0.9,0.2,1,0.6
					C86.6,37.1,85.9,38.5,85.2,39.2z"/>
			</g>
		</g>
	</g>
	<g>
		<g>
			<g>
				<path class="st4" d="M83.9,32.1c-0.2,0-0.4-0.1-0.6-0.2c-0.1-0.2-0.2-0.4-0.2-0.6c0-0.2,0.1-0.4,0.2-0.6c0.3-0.3,0.8-0.3,1.1,0
					c0.2,0.2,0.2,0.4,0.2,0.6c0,0.2-0.1,0.4-0.2,0.6C84.3,32,84.2,32.1,83.9,32.1z"/>
			</g>
		</g>
	</g>
	<g>
		<g>
			<g>
				<path class="st4" d="M82.3,29.2c-0.3,0-0.5-0.1-0.7-0.4c-1-1.6-2.2-3.3-3.6-4.9c-0.3-0.3-0.2-0.8,0.1-1.1
					c0.3-0.3,0.8-0.2,1.1,0.1c1.4,1.7,2.7,3.4,3.8,5.1c0.2,0.4,0.1,0.9-0.2,1.1C82.6,29.2,82.5,29.2,82.3,29.2z"/>
			</g>
		</g>
	</g>
	<g>
		<g>
			<g>
				<path class="st4" d="M77.9,37.9c-0.1,0.3-0.1,0.7-0.2,1c-0.8,2.8-2.2,5.4-4.3,7.4c-3.1,3.2-7.3,4.9-11.8,4.9
					c-4.5,0-8.8-1.8-12-5c-6.6-6.7-6.7-17.4-0.1-24c2.1-2.1,4.6-3.5,7.4-4.3c0.3-0.1,0.7-0.2,1-0.2c0.3-0.1,0.7,0.1,0.8,0.3
					c0,0,0,0.1,0.1,0.1c0,0,0,0.1,0,0.1c0.1,0.4-0.2,0.9-0.6,1c-0.2,0-0.4,0.1-0.6,0.1c-2.6,0.6-5,2-7,4c-5.9,5.9-5.9,15.7,0.1,21.7
					c2.9,2.9,6.8,4.6,10.9,4.6c4.1,0,7.8-1.6,10.7-4.4c1.9-2,3.3-4.4,3.9-7c0.1-0.2,0.1-0.4,0.1-0.6c0.1-0.4,0.5-0.7,0.9-0.6
					c0,0,0.1,0,0.1,0c0,0,0.1,0,0.2,0.1C77.8,37.3,77.9,37.6,77.9,37.9z"/>
			</g>
		</g>
	</g>
	<g>
		<g>
			<g>
				<path class="st4" d="M72.8,35.3c0,0.2,0,0.5-0.1,0.7c-0.3,2.4-1.5,4.7-3.2,6.5c-2.1,2.1-5,3.3-8,3.3c-3.1,0-6-1.2-8.2-3.4
					c-4.5-4.5-4.5-11.8-0.1-16.3c1.8-1.8,4-2.9,6.4-3.2c0.5-0.1,1-0.1,1.5-0.1c0.2,0,0.4,0.1,0.6,0.2c0,0,0.1,0.1,0.1,0.1
					c0.1,0.1,0.1,0.3,0.1,0.4c0,0.4-0.3,0.8-0.8,0.8c-0.1,0-0.3,0-0.4,0c-2.4,0.1-4.7,1.1-6.4,2.8c-3.8,3.8-3.8,10.1,0.1,14
					c1.9,1.9,4.4,2.9,7,2.9c2.6,0,5.1-1,6.9-2.9c1.6-1.6,2.6-3.8,2.8-6.1c0-0.1,0-0.2,0.1-0.2c0.1-0.3,0.4-0.5,0.8-0.5
					C72.5,34.5,72.8,34.8,72.8,35.3z"/>
			</g>
		</g>
	</g>
	<circle class="st0" cx="52.2" cy="43.9" r="6.3"/>
	<path class="st4" d="M52.2,50.9c-3.9,0-7-3.1-7-7s3.1-7,7-7c3.9,0,7,3.1,7,7S56.1,50.9,52.2,50.9z M52.2,38.3
		c-3.1,0-5.6,2.5-5.6,5.6s2.5,5.6,5.6,5.6c3.1,0,5.6-2.5,5.6-5.6S55.3,38.3,52.2,38.3z"/>
</g>
</svg>
