<?xml version="1.0" encoding="utf-8"?>
<!-- Generator: Adobe Illustrator 26.0.2, SVG Export Plug-In . SVG Version: 6.00 Build 0)  -->
<svg version="1.1" xmlns="http://www.w3.org/2000/svg" xmlns:xlink="http://www.w3.org/1999/xlink" x="0px" y="0px"
	viewBox="0 0 140 95" style="enable-background:new 0 0 140 95;" xml:space="preserve">
<style type="text/css">
	.st0{fill:#E20613;}
	.st1{fill:none;stroke:#E20613;stroke-width:1.4;stroke-linecap:round;stroke-linejoin:round;stroke-miterlimit:10;}
	.st2{fill:#E20613;stroke:#606060;stroke-width:1.4;stroke-linecap:round;stroke-linejoin:round;stroke-miterlimit:10;}
	.st3{fill:#FFFFFF;stroke:#606060;stroke-width:1.4;stroke-linecap:round;stroke-linejoin:round;stroke-miterlimit:10;}
	.st4{fill:#606060;}
	.st5{opacity:0.15;}
	.st6{fill-rule:evenodd;clip-rule:evenodd;fill:#211E1F;}
	.st7{fill:#FFFFFF;}
	.st8{clip-path:url(#SVGID_00000026875566385628121120000003768087806169850769_);}
	.st9{fill:#E0232F;}
	.st10{fill:#FFDC00;}
	.st11{fill:#221F1F;}
	.st12{fill-rule:evenodd;clip-rule:evenodd;fill:#E0232F;}
	.st13{fill:#4F4F51;}
	.st14{fill:#4D4D4D;}
	.st15{fill:none;stroke:#606060;stroke-width:1.2;stroke-miterlimit:10;}
	.st16{fill:#E20613;stroke:#606060;stroke-width:1.2;stroke-miterlimit:10;}
	.st17{fill:none;stroke:#E20613;stroke-width:1.2;stroke-linecap:round;stroke-miterlimit:10;}
	.st18{fill:none;stroke:#606060;stroke-width:1.2;stroke-linecap:round;stroke-linejoin:round;stroke-miterlimit:10;}
	.st19{fill:none;stroke:#606060;stroke-width:1.2;stroke-linecap:round;stroke-miterlimit:10;}
	.st20{fill:#333333;}
	.st21{fill:none;stroke:#000000;stroke-width:1.2;stroke-miterlimit:10;}
	.st22{fill:none;stroke:#606060;stroke-miterlimit:10;}
	.st23{fill:#606060;stroke:#606060;stroke-width:0.5;stroke-miterlimit:10;}
	.st24{fill:none;stroke:#606060;stroke-width:1.4;stroke-linecap:round;stroke-linejoin:round;stroke-miterlimit:10;}
	.st25{fill:none;stroke:#464646;stroke-width:1.4;stroke-linecap:round;stroke-linejoin:round;stroke-miterlimit:10;}
	.st26{fill:#464646;}
	.st27{fill:#474747;}
	.st28{fill:#606060;stroke:#606060;stroke-width:0.15;stroke-miterlimit:10;}
	.st29{fill:none;stroke:#000000;stroke-width:1.4;stroke-linecap:round;stroke-miterlimit:10;}
	.st30{fill:#505050;}
	.st31{fill:#E20613;stroke:#606060;stroke-width:0.75;stroke-linecap:round;stroke-linejoin:round;stroke-miterlimit:10;}
	.st32{fill:none;stroke:#505050;stroke-width:2;stroke-linejoin:round;stroke-miterlimit:10;}
	.st33{fill:none;stroke:#505050;stroke-width:2;stroke-linecap:round;stroke-linejoin:round;stroke-miterlimit:10;}
	.st34{fill:none;}
	.st35{fill:#E20613;stroke:#606060;stroke-miterlimit:10;}
	.st36{fill:#FFFFFF;stroke:#47478B;stroke-width:3;stroke-linejoin:round;stroke-miterlimit:10;}
	.st37{fill:none;stroke:#47478B;stroke-width:3;stroke-linejoin:round;stroke-miterlimit:10;}
	.st38{fill:#F1F3FF;stroke:#47478B;stroke-width:3;stroke-linecap:round;stroke-linejoin:round;stroke-miterlimit:10;}
	.st39{fill:none;stroke:#354C5F;stroke-width:1.4;stroke-linecap:round;stroke-linejoin:round;stroke-miterlimit:10;}
	.st40{fill:#EA1F4B;}
	.st41{fill:none;stroke:#606060;stroke-width:1.4;stroke-linecap:round;stroke-miterlimit:10;}
	.st42{fill:#E20613;stroke:#606060;stroke-width:1.4;stroke-miterlimit:10;}
	.st43{fill:none;stroke:#606060;stroke-width:2.4902;stroke-linecap:round;stroke-miterlimit:10;}
	.st44{fill:none;stroke:#606060;stroke-width:2.4902;stroke-miterlimit:10;}
	.st45{fill:#606060;stroke:#606060;stroke-width:1.0376;stroke-miterlimit:10;}
	.st46{fill:none;stroke:#606060;stroke-width:2.9053;stroke-linecap:round;stroke-miterlimit:10;}
	.st47{fill:#E20613;stroke:#606060;stroke-width:2.9053;stroke-miterlimit:10;}
	.st48{fill:#E20613;stroke:#606060;stroke-width:1.0376;stroke-miterlimit:10;}
	.st49{fill:none;stroke:#505050;stroke-width:2.9053;stroke-linecap:round;stroke-linejoin:round;stroke-miterlimit:10;}
	.st50{fill:#E20613;stroke:#505050;stroke-width:2.9053;stroke-linecap:round;stroke-linejoin:round;stroke-miterlimit:10;}
	.st51{fill:#E20613;stroke:#606060;stroke-width:2.9053;stroke-linecap:round;stroke-linejoin:round;stroke-miterlimit:10;}
	.st52{fill:none;stroke:#606060;stroke-width:2.9053;stroke-linecap:round;stroke-linejoin:round;stroke-miterlimit:10;}
	.st53{fill:#E20613;stroke:#606060;stroke-width:2.9053;stroke-linejoin:round;stroke-miterlimit:10;}
	.st54{fill:#FFFFFF;stroke:#606060;stroke-width:2.9053;stroke-linecap:round;stroke-linejoin:round;stroke-miterlimit:10;}
	.st55{fill:none;stroke:#E20613;stroke-width:2.9053;stroke-linecap:round;stroke-linejoin:round;stroke-miterlimit:10;}
	.st56{fill:#E20613;stroke:#606060;stroke-width:2.4902;stroke-linecap:round;stroke-miterlimit:10;}
	.st57{fill:#E20613;stroke:#606060;stroke-width:1.5564;stroke-linecap:round;stroke-linejoin:round;stroke-miterlimit:10;}
	.st58{fill:none;stroke:#606060;stroke-width:2.0752;stroke-linecap:round;stroke-miterlimit:10;}
	.st59{fill:#E20613;stroke:#606060;stroke-width:2.4902;stroke-linecap:round;stroke-linejoin:round;stroke-miterlimit:10;}
	.st60{fill:none;stroke:#606060;stroke-width:2.4902;stroke-linecap:round;stroke-linejoin:round;stroke-miterlimit:10;}
	.st61{fill:none;stroke:#606060;stroke-width:2.0752;stroke-linecap:round;stroke-linejoin:round;stroke-miterlimit:10;}
</style>
<g id="Frame">
</g>
<g id="Layer_1">
	<g>
		<g>
			<path class="st4" d="M11.4,64.7c0,3.3-2.3,5.5-5.8,5.5H1.8v-11h3.8C9.2,59.2,11.4,61.4,11.4,64.7z M5.6,68.3
				c2.3,0,3.6-1.3,3.6-3.6c0-2.3-1.3-3.6-3.6-3.6H4v7.2H5.6z"/>
			<path class="st4" d="M16.9,70.3c-2.5,0-4.4-1.8-4.4-4.5c0-2.7,1.8-4.5,4.4-4.5c2.5,0,4.3,1.7,4.3,4.3c0,0.3,0,0.6-0.1,0.8h-6.4
				c0.1,1.3,1,2,2.1,2c0.9,0,1.5-0.5,1.7-1.1H21C20.5,69.1,19,70.3,16.9,70.3z M14.8,65h4.1c0-1.1-0.9-1.9-2.1-1.9
				C15.8,63.2,14.9,63.8,14.8,65z"/>
			<path class="st4" d="M25,70.2h-2.2v-8.7H25v1.4c0.5-0.9,1.5-1.5,2.7-1.5v2.3h-0.6c-1.3,0-2.1,0.5-2.1,2.2V70.2z"/>
			<path class="st4" d="M41.3,65.4c0-1.4-0.8-2.1-1.9-2.1c-1.2,0-1.9,0.7-1.9,2.1v4.8h-2.2v-4.8c0-1.4-0.8-2.1-1.9-2.1
				c-1.2,0-2,0.7-2,2.1v4.8h-2.2v-8.7h2.2v1.1c0.5-0.7,1.5-1.2,2.6-1.2c1.4,0,2.5,0.6,3.1,1.7c0.6-1,1.7-1.7,3-1.7
				c2.1,0,3.6,1.3,3.6,3.7v5.1h-2.2V65.4z"/>
			<path class="st4" d="M49.4,70.3c-2.5,0-4.4-1.8-4.4-4.5c0-2.7,2-4.5,4.5-4.5s4.5,1.7,4.5,4.5C54,68.6,52,70.3,49.4,70.3z
				 M49.4,68.4c1.2,0,2.3-0.8,2.3-2.6c0-1.7-1.1-2.6-2.2-2.6c-1.2,0-2.2,0.8-2.2,2.6C47.3,67.6,48.3,68.4,49.4,68.4z"/>
			<path class="st4" d="M59.3,61.4c2.2,0,3.6,1.1,4.1,3.1h-2.4c-0.3-0.7-0.8-1.2-1.7-1.2c-1.2,0-2,0.9-2,2.6s0.8,2.6,2,2.6
				c0.9,0,1.5-0.4,1.7-1.2h2.4c-0.5,1.9-1.9,3.1-4.1,3.1c-2.5,0-4.3-1.8-4.3-4.5S56.8,61.4,59.3,61.4z"/>
			<path class="st4" d="M68.9,70.3c-2.5,0-4.4-1.8-4.4-4.5c0-2.7,2-4.5,4.5-4.5s4.5,1.7,4.5,4.5C73.5,68.6,71.4,70.3,68.9,70.3z
				 M68.9,68.4c1.2,0,2.3-0.8,2.3-2.6c0-1.7-1.1-2.6-2.2-2.6c-1.2,0-2.2,0.8-2.2,2.6C66.7,67.6,67.7,68.4,68.9,68.4z"/>
			<path class="st4" d="M78.4,70.3c-2.2,0-3.7-1.3-3.8-2.9h2.2c0.1,0.7,0.7,1.2,1.6,1.2c0.9,0,1.3-0.4,1.3-0.9
				c0-1.6-4.9-0.6-4.9-3.8c0-1.4,1.3-2.6,3.4-2.6c2.1,0,3.4,1.1,3.5,2.9h-2.1c-0.1-0.7-0.6-1.1-1.5-1.1c-0.8,0-1.2,0.3-1.2,0.8
				c0,1.6,4.8,0.6,4.9,3.8C81.8,69.2,80.5,70.3,78.4,70.3z"/>
			<path class="st4" d="M95.8,65.4c0-1.4-0.8-2.1-1.9-2.1c-1.2,0-1.9,0.7-1.9,2.1v4.8h-2.2v-4.8c0-1.4-0.8-2.1-1.9-2.1
				c-1.2,0-2,0.7-2,2.1v4.8h-2.2v-8.7h2.2v1.1c0.5-0.7,1.5-1.2,2.6-1.2c1.4,0,2.5,0.6,3.1,1.7c0.6-1,1.7-1.7,3-1.7
				c2.1,0,3.6,1.3,3.6,3.7v5.1h-2.2V65.4z"/>
			<path class="st4" d="M103.9,70.3c-2.5,0-4.4-1.8-4.4-4.5c0-2.7,1.8-4.5,4.4-4.5c2.5,0,4.3,1.7,4.3,4.3c0,0.3,0,0.6-0.1,0.8h-6.4
				c0.1,1.3,1,2,2.1,2c0.9,0,1.5-0.5,1.7-1.1h2.4C107.5,69.1,106,70.3,103.9,70.3z M101.8,65h4.1c0-1.1-0.9-1.9-2.1-1.9
				C102.8,63.2,101.9,63.8,101.8,65z M105.6,57.4v1.8l-3.6,1.6v-1.6L105.6,57.4z"/>
			<path class="st4" d="M110.1,63.3h-1v-1.8h1v-2.2h2.2v2.2h1.9v1.8h-1.9v4.2c0,0.6,0.2,0.8,0.9,0.8h1v1.9h-1.4
				c-1.7,0-2.8-0.7-2.8-2.7V63.3z"/>
			<path class="st4" d="M115.6,59.2c0-0.7,0.6-1.3,1.4-1.3c0.8,0,1.4,0.6,1.4,1.3s-0.6,1.3-1.4,1.3
				C116.2,60.5,115.6,59.9,115.6,59.2z M115.9,61.5h2.2v8.7h-2.2V61.5z"/>
			<path class="st4" d="M124,61.4c2.2,0,3.6,1.1,4.1,3.1h-2.4c-0.3-0.7-0.8-1.2-1.7-1.2c-1.2,0-2,0.9-2,2.6s0.8,2.6,2,2.6
				c0.9,0,1.5-0.4,1.7-1.2h2.4c-0.5,1.9-1.9,3.1-4.1,3.1c-2.5,0-4.3-1.8-4.3-4.5S121.5,61.4,124,61.4z"/>
			<path class="st4" d="M133.1,61.4c1.4,0,2.4,0.7,2.9,1.4v-1.2h2.2v8.7H136v-1.3c-0.5,0.8-1.5,1.4-2.9,1.4c-2.2,0-4-1.8-4-4.5
				S130.9,61.4,133.1,61.4z M133.7,63.3c-1.2,0-2.3,0.9-2.3,2.5c0,1.6,1.1,2.6,2.3,2.6c1.2,0,2.3-0.9,2.3-2.6
				C136,64.2,134.9,63.3,133.7,63.3z"/>
		</g>
	</g>
	<g>
		<path class="st0" d="M64.1,29.1l-1.4,2.5l-1.4-2.5c0,0,0-1.4,1.4-1.4S64.1,29.1,64.1,29.1z"/>
		<path class="st0" d="M61.3,29l1.4,2.5l-2.9,0c0,0-1.2-0.7-0.5-2C60,28.3,61.3,29,61.3,29z"/>
		<path class="st0" d="M59.8,31.5l2.9,0L61.3,34c0,0-1.2,0.7-2-0.5C58.6,32.2,59.8,31.5,59.8,31.5z"/>
		<path class="st0" d="M61.2,34l1.4-2.5l1.4,2.5c0,0,0,1.4-1.4,1.4S61.2,34,61.2,34z"/>
		<path class="st0" d="M64.1,34l-1.4-2.5l2.9,0c0,0,1.2,0.7,0.5,2C65.3,34.7,64.1,34,64.1,34z"/>
		<path class="st0" d="M65.5,31.5l-2.9,0l1.4-2.5c0,0,1.2-0.7,2,0.5C66.8,30.8,65.5,31.5,65.5,31.5z"/>
		<path class="st4" d="M66.1,31.5c0.4-0.4,0.8-1.2,0.2-2.1c-0.4-0.6-0.9-1-1.6-0.9c-0.1,0-0.3,0-0.4,0.1c-0.2-0.6-0.6-1.3-1.7-1.3
			c-1.1,0-1.6,0.7-1.7,1.3c-0.1,0-0.2-0.1-0.4-0.1c-0.7,0-1.2,0.3-1.6,0.9c-0.5,0.9-0.2,1.7,0.2,2.1c-0.4,0.4-0.8,1.2-0.2,2.1
			c0.4,0.7,1,0.9,1.5,0.9c0.2,0,0.3,0,0.5-0.1c0.2,0.6,0.6,1.3,1.7,1.3c1.1,0,1.6-0.7,1.7-1.3c0.2,0,0.3,0.1,0.5,0.1
			c0.5,0,1.1-0.2,1.5-0.9C66.9,32.7,66.6,32,66.1,31.5z M65.7,29.8c0.4,0.7,0,1.2-0.3,1.4l-2.1,0l1.1-1.8
			C64.7,29.2,65.3,29,65.7,29.8z M62.7,28c0.8,0,1,0.6,1.1,0.9l-1.1,1.8l-1.1-1.8C61.7,28.6,61.8,28,62.7,28z M59.6,29.8
			c0.2-0.4,0.6-0.6,0.9-0.6c0.2,0,0.4,0.1,0.5,0.1l1.1,1.8l-2.1,0C59.7,31,59.2,30.5,59.6,29.8z M59.6,33.3c-0.4-0.7,0-1.2,0.3-1.4
			l2.1,0L61,33.7C60.7,33.9,60,34,59.6,33.3z M62.7,35.1c-0.8,0-1-0.6-1.1-0.9l1.1-1.8l1.1,1.8C63.7,34.4,63.5,35.1,62.7,35.1z
			 M65.7,33.3c-0.4,0.7-1.1,0.6-1.3,0.4l-1.1-1.8l2.1,0C65.7,32.1,66.2,32.6,65.7,33.3z"/>
		<path class="st0" d="M70.8,40.4v5.5c0,0.9,0.7,1.6,1.6,1.6h11.3c0.9,0,1.6-0.7,1.6-1.6v-5.5H70.8z M75.8,46.8
			c0.3-0.9,1.2-1.6,2.2-1.6c1,0,1.9,0.7,2.2,1.6H75.8z"/>
		<polyline class="st0" points="84.4,13.1 87.1,13.1 87.3,9.2 68.8,9.2 69,13.1 82,13.1 		"/>
		<path class="st4" d="M88.2,9.2c0-0.2-0.1-0.4-0.2-0.5s-0.3-0.2-0.5-0.2l-9.1,0l-9.6,0l0,0h-0.1c-0.2,0-0.4,0.1-0.5,0.2
			S67.9,9,67.9,9.2l2.2,31.2v5.5c0,1.2,1,2.3,2.3,2.3h11.3c1.2,0,2.3-1,2.3-2.3v-5.5L88.2,9.2z M79.6,39.7h-8.1l-1.8-25.9H82
			c0.4,0,0.7-0.3,0.7-0.7s-0.3-0.7-0.7-0.7H69.6l-0.1-2.6H70c0,0,0,0,0,0l8,0l8,0h0h0.5l-0.1,2.6h-2.1c-0.4,0-0.7,0.3-0.7,0.7
			s0.3,0.7,0.7,0.7h2l-1.8,25.9H79.6z M84.5,45.9c0,0.5-0.4,0.9-0.9,0.9H72.4c-0.5,0-0.9-0.4-0.9-0.9v-4.8h8h5V45.9z"/>
		<g>
			<path class="st4" d="M81.1,48.2h-6c-0.4,0-0.7-0.3-0.7-0.7c0-2.1,1.7-3.7,3.7-3.7s3.7,1.7,3.7,3.7C81.8,47.9,81.4,48.2,81.1,48.2
				z M75.8,46.8h4.4c-0.3-0.9-1.2-1.6-2.2-1.6S76.1,45.9,75.8,46.8z"/>
		</g>
		<g>
			<path class="st4" d="M78,31h-1v-1.1c0-1.5-1.3-2.8-2.8-2.8H73v-1h1.3c1.5,0,2.8-1.3,2.8-2.8v-1.1h1v1.1c0,1.5,1.3,2.8,2.8,2.8
				h1.3v1h-1.3c-1.5,0-2.8,1.3-2.8,2.8V31z M76.1,26.6c0.6,0.3,1.1,0.8,1.4,1.4c0.3-0.6,0.8-1.1,1.4-1.4c-0.6-0.3-1.1-0.8-1.4-1.4
				C77.2,25.8,76.7,26.3,76.1,26.6z"/>
		</g>
		<path class="st0" d="M59.1,12.6h7.2V7.1c0-1.1,0-1.9,0-1.9h-7.2c0,0,0,0.9,0,1.9V12.6z"/>
		<path class="st4" d="M73.3,2l-4.4-2c-0.1,0-0.2-0.1-0.3-0.1h-4.5c0,0,0,0,0,0h-2.9c0,0,0,0,0,0H58c-0.4,0-0.7,0.3-0.7,0.7
			s0.3,0.7,0.7,0.7h2.5v3.1h-1.5c-0.4,0-0.7,0.3-0.7,0.7v7.4v1.5c-1.7,0.5-6.5,2.8-6.5,12.6c0,1.1,0,2.1,0,3.2
			c-0.1,7.4-0.1,13.9,2.7,16.7c1,1,2.3,1.5,3.9,1.6c0,0,0,0,0,0h8.1c0,0,0,0,0,0c0.6,0,1.1-0.1,1.6-0.2c0.4-0.1,0.6-0.5,0.5-0.9
			c-0.1-0.4-0.5-0.6-0.9-0.5c-0.4,0.1-0.9,0.2-1.4,0.2h-7.9c-1.3,0-2.3-0.4-3.1-1.2c-2.4-2.4-2.4-8.6-2.3-15.7c0-1,0-2.1,0-3.2
			c0-10.4,5.6-11.3,5.9-11.3c0.3,0,0.6-0.3,0.6-0.7v-1.4h5.8v1.4c0,0.3,0.3,0.6,0.6,0.7c0,0,0.2,0,0.5,0.1c0.4,0.1,0.8-0.1,0.9-0.4
			c0.1-0.4-0.1-0.8-0.4-0.9c0,0-0.1,0-0.1,0v-1.6V5.2c0-0.4-0.3-0.7-0.7-0.7h-1.5V1.4h3.6l4.2,2c0.1,0,0.2,0.1,0.3,0.1
			c0.3,0,0.5-0.2,0.6-0.4C73.8,2.6,73.6,2.2,73.3,2z M65.6,11.9h-5.8v-6h1.5h2.9h1.5V11.9z M63.4,4.5h-1.5V1.4h1.5V4.5z"/>
		<g>
			<path class="st4" d="M64.8,42.9h-4.3c-2.6,0-4.7-2.1-4.7-4.7V24.9c0-2.6,2.1-4.7,4.7-4.7h4.3c0.6,0,1.2,0.1,1.7,0.3
				c0.4,0.1,0.5,0.6,0.4,0.9c-0.1,0.4-0.6,0.5-0.9,0.4c-0.4-0.2-0.8-0.2-1.2-0.2h-4.3c-1.8,0-3.3,1.5-3.3,3.3v13.3
				c0,1.8,1.5,3.3,3.3,3.3h4.3c1.3,0,2.4-0.7,3-1.9c0.2-0.3,0.6-0.5,0.9-0.3c0.3,0.2,0.5,0.6,0.3,0.9C68.3,41.9,66.6,42.9,64.8,42.9
				z"/>
		</g>
	</g>
</g>
</svg>
