<?xml version="1.0" encoding="utf-8"?>
<!-- Generator: Adobe Illustrator 23.0.5, SVG Export Plug-In . SVG Version: 6.00 Build 0)  -->
<svg version="1.1" id="Capa_1" xmlns="http://www.w3.org/2000/svg" xmlns:xlink="http://www.w3.org/1999/xlink" x="0px" y="0px"
	 viewBox="0 0 140 95" style="enable-background:new 0 0 140 95;" xml:space="preserve">
<style type="text/css">
	.st0{fill:#E20613;}
	.st1{fill:#606060;}
</style>
<g id="Frame">
</g>
<g id="bebidas">
	<g>
		<polygon class="st0" points="54.2,37.9 44.4,37.9 44.4,29.8 51.8,29.8 		"/>
	</g>
	<g>
		<g>
			<path class="st1" d="M43,70.5h-3.6l-0.6,1.7h-1.9l3.3-9.1h2.1l3.3,9.1h-1.9L43,70.5z M41.2,65.2L39.9,69h2.6L41.2,65.2z"/>
			<path class="st1" d="M46.7,62.6h1.8v9.6h-1.8V62.6z"/>
			<path class="st1" d="M50.1,63.1c0-0.6,0.5-1.1,1.1-1.1s1.1,0.5,1.1,1.1s-0.5,1.1-1.1,1.1C50.6,64.1,50.1,63.7,50.1,63.1z
				 M50.3,65h1.8v7.2h-1.8V65z"/>
			<path class="st1" d="M64,68.2c0-1.1-0.6-1.7-1.6-1.7s-1.6,0.6-1.6,1.7v4H59v-4c0-1.1-0.6-1.7-1.6-1.7s-1.6,0.6-1.6,1.7v4H54V65
				h1.8v0.9c0.5-0.6,1.2-1,2.1-1c1.1,0,2,0.5,2.5,1.4c0.5-0.8,1.4-1.4,2.5-1.4c1.7,0,3,1.1,3,3.1v4.2h-1.8L64,68.2L64,68.2z"/>
			<path class="st1" d="M70.7,72.3c-2.1,0-3.6-1.5-3.6-3.7c0-2.3,1.5-3.7,3.6-3.7s3.5,1.4,3.5,3.6c0,0.2,0,0.5-0.1,0.7h-5.3
				c0.1,1.1,0.8,1.7,1.7,1.7c0.8,0,1.2-0.4,1.4-0.9h2C73.7,71.3,72.5,72.3,70.7,72.3z M68.9,67.9h3.4c0-0.9-0.8-1.5-1.7-1.5
				C69.8,66.4,69.1,66.9,68.9,67.9z"/>
			<path class="st1" d="M80.6,68.2c0-1.2-0.6-1.8-1.6-1.8s-1.6,0.6-1.6,1.8v4h-1.8V65h1.8v0.9c0.5-0.6,1.2-1,2.2-1
				c1.7,0,2.9,1.1,2.9,3.1v4.2h-1.8L80.6,68.2L80.6,68.2z"/>
			<path class="st1" d="M84.5,66.5h-0.9V65h0.9v-1.8h1.8V65h1.6v1.5h-1.6V70c0,0.5,0.2,0.7,0.8,0.7h0.8v1.5h-1.1
				c-1.4,0-2.3-0.6-2.3-2.2C84.5,70,84.5,66.5,84.5,66.5z"/>
			<path class="st1" d="M92.4,72.3c-2.1,0-3.7-1.5-3.7-3.7c0-2.3,1.6-3.7,3.7-3.7s3.7,1.4,3.7,3.7C96.2,70.9,94.5,72.3,92.4,72.3z
				 M92.4,70.7c1,0,1.9-0.7,1.9-2.1s-0.9-2.1-1.9-2.1s-1.8,0.7-1.8,2.1S91.4,70.7,92.4,70.7z"/>
			<path class="st1" d="M100.3,72.3c-1.8,0-3.1-1.1-3.1-2.4H99c0.1,0.5,0.6,1,1.3,1c0.7,0,1.1-0.3,1.1-0.7c0-1.3-4.1-0.5-4.1-3.1
				c0-1.2,1.1-2.2,2.8-2.2c1.7,0,2.8,0.9,2.9,2.4h-1.7c-0.1-0.6-0.5-0.9-1.2-0.9s-1,0.3-1,0.7c0,1.3,4,0.5,4,3.1
				C103.1,71.4,102,72.3,100.3,72.3z"/>
			<path class="st1" d="M43.7,83h1.9l-4.5,10.6h-1.9l1.6-3.6l-2.9-7h2l1.9,5L43.7,83z"/>
			<path class="st1" d="M53.6,90.2h-3.9v-9.1h3.7c1.9,0,3,1,3,2.3c0,1.1-0.7,1.8-1.5,2.1c1,0.2,1.8,1.1,1.8,2.2
				C56.6,89.2,55.5,90.2,53.6,90.2z M53.2,82.6h-1.7v2.3h1.7c0.9,0,1.4-0.4,1.4-1.1C54.6,83,54.1,82.6,53.2,82.6z M53.3,86.3h-1.8
				v2.4h1.8c0.9,0,1.4-0.4,1.4-1.2C54.8,86.7,54.2,86.3,53.3,86.3z"/>
			<path class="st1" d="M61.2,90.3c-2.1,0-3.6-1.5-3.6-3.7c0-2.3,1.5-3.7,3.6-3.7s3.5,1.4,3.5,3.6c0,0.2,0,0.5-0.1,0.7h-5.3
				c0.1,1.1,0.8,1.7,1.7,1.7c0.8,0,1.2-0.4,1.4-0.9h2C64.2,89.3,63,90.3,61.2,90.3z M59.5,85.9h3.4c0-0.9-0.8-1.5-1.7-1.5
				S59.6,84.9,59.5,85.9z"/>
			<path class="st1" d="M70.3,82.9c1.8,0,3.3,1.4,3.3,3.7c0,2.2-1.4,3.7-3.3,3.7c-1.1,0-1.9-0.5-2.4-1.1v1h-1.8v-9.6h1.8v3.5
				C68.4,83.4,69.2,82.9,70.3,82.9z M69.8,84.5c-1,0-1.9,0.8-1.9,2.1s0.9,2.1,1.9,2.1s1.9-0.8,1.9-2.1
				C71.7,85.2,70.8,84.5,69.8,84.5z"/>
			<path class="st1" d="M74.7,81.1c0-0.6,0.5-1.1,1.1-1.1s1.1,0.5,1.1,1.1s-0.5,1.1-1.1,1.1C75.2,82.1,74.7,81.7,74.7,81.1z
				 M74.9,83h1.8v7.2h-1.8V83z"/>
			<path class="st1" d="M81.4,82.9c0.9,0,1.9,0.4,2.4,1.1v-3.4h1.8v9.6h-1.8v-1.1c-0.4,0.7-1.2,1.2-2.4,1.2c-1.8,0-3.3-1.5-3.3-3.7
				C78.1,84.3,79.5,82.9,81.4,82.9z M81.8,84.5c-1,0-1.9,0.7-1.9,2.1s0.9,2.1,1.9,2.1s1.9-0.8,1.9-2.1S82.8,84.5,81.8,84.5z"/>
			<path class="st1" d="M90.2,82.9c1.2,0,2,0.5,2.4,1.1v-1h1.8v7.2h-1.8v-1.1c-0.4,0.6-1.2,1.2-2.4,1.2c-1.8,0-3.3-1.5-3.3-3.7
				C86.9,84.3,88.3,82.9,90.2,82.9z M90.6,84.5c-1,0-1.9,0.7-1.9,2.1s0.9,2.1,1.9,2.1s1.9-0.8,1.9-2.1S91.6,84.5,90.6,84.5z"/>
			<path class="st1" d="M98.9,90.3c-1.8,0-3.1-1.1-3.1-2.4h1.8c0.1,0.5,0.6,1,1.3,1c0.7,0,1.1-0.3,1.1-0.7c0-1.3-4.1-0.5-4.1-3.1
				c0-1.2,1.1-2.2,2.8-2.2c1.7,0,2.8,0.9,2.9,2.4h-1.7c-0.1-0.6-0.5-0.9-1.2-0.9s-1,0.3-1,0.7c0,1.3,4,0.5,4,3.1
				C101.7,89.4,100.7,90.3,98.9,90.3z"/>
		</g>
	</g>
	<path class="st1" d="M96.3,29.8c0-1.6-1.3-2.8-2.8-2.8h-0.1c0.6-2.7-0.7-5.6-3.1-6.8c-0.9-0.5-1.9-0.7-2.9-0.7
		c-0.8-2.6-3.2-4.5-5.9-4.5c-1,0-1.9,0.2-2.8,0.7c-1.1-1.7-3-2.7-5.1-2.7s-3.9,1-5.1,2.7c-0.9-0.4-1.8-0.7-2.8-0.7
		c-2.8,0-5.2,1.8-5.9,4.5c-0.1,0-0.1,0-0.2,0c-2.6,0-5,1.7-5.8,4.2c-0.4,1-0.4,2.2-0.1,3.3l0,0c-1.6,0-2.8,1.3-2.8,2.8
		c0,1,0.5,1.9,1.3,2.4c0.2,2.1,1.6,11.9,10.8,15.5c-0.1,0.7,0.1,1.4,0.5,2c0.5,0.8,1.4,1.2,2.4,1.2h15.6c0.9,0,1.8-0.5,2.4-1.2
		c0.4-0.6,0.6-1.3,0.5-2C93.6,44,95,34.3,95.2,32.2C95.8,31.6,96.3,30.8,96.3,29.8z M53.6,28.3h32.8c0.4,0,0.7-0.3,0.7-0.7
		s-0.3-0.7-0.7-0.7H55.1C54.8,26,54.7,25,55,24.1c0.7-1.9,2.5-3.2,4.5-3.2c0.2,0,0.4,0,0.6,0c0.2,0.1,1.5,0.5,2,1.6
		c0.1,0.3,0.4,0.4,0.6,0.4c0.1,0,0.2,0,0.3-0.1c0.4-0.2,0.5-0.6,0.4-0.9c-0.5-1.2-1.6-1.9-2.3-2.2c0.6-2,2.4-3.4,4.5-3.4
		c0.8,0,1.5,0.2,2.1,0.5c-0.2,0.8-0.5,2.2,0,3.7c0.1,0.3,0.4,0.5,0.7,0.5c0.1,0,0.1,0,0.2,0c0.4-0.1,0.6-0.5,0.5-0.9
		c-0.5-1.7,0.1-3.2,0.2-3.3c0.8-1.6,2.4-2.5,4.2-2.5c1.8,0,3.4,1,4.2,2.6c0.1,0.2,0.3,0.3,0.4,0.4c0.2,0,0.4,0,0.6-0.1
		c0.8-0.5,1.7-0.8,2.6-0.8c2.3,0,4.3,1.7,4.7,3.9l0,0c0,0.1,0.2,1.3-0.8,2.2c-0.3,0.3-0.3,0.7,0,1c0.1,0.1,0.3,0.2,0.5,0.2
		s0.3-0.1,0.5-0.2c0.9-0.9,1.2-1.9,1.2-2.7c0.7,0,1.5,0.2,2.1,0.5c1.9,0.9,2.9,3.2,2.4,5.3v0.2h-2.6c-0.4,0-0.7,0.3-0.7,0.7
		s0.3,0.7,0.7,0.7h4.1c0.8,0,1.4,0.6,1.4,1.4c0,0.5-0.3,1-0.7,1.2H53c-0.4-0.2-0.7-0.7-0.7-1.2C52.2,29,52.9,28.3,53.6,28.3z
		 M93.5,33c0,0.2-0.1,0.4-0.1,0.6l0,0c0,0.2-0.1,0.5-0.2,0.7l0,0c-0.1,0.2-0.1,0.5-0.2,0.8v0.1c-0.1,0.3-0.2,0.5-0.2,0.8v0.1
		c-0.2,0.6-0.4,1.2-0.7,1.8c0,0.1,0,0.1-0.1,0.2c-0.1,0.3-0.3,0.6-0.4,0.9c0,0.1-0.1,0.1-0.1,0.2c-0.2,0.3-0.3,0.6-0.5,0.9
		c0,0,0,0.1-0.1,0.1c-0.2,0.3-0.4,0.6-0.6,0.9l-0.1,0.1c-0.2,0.3-0.5,0.6-0.7,0.9c-0.1,0.1-0.1,0.1-0.2,0.2
		c-0.3,0.3-0.5,0.6-0.8,0.9l-0.1,0.1c-0.3,0.3-0.6,0.5-0.9,0.8l-0.1,0.1c-0.3,0.3-0.7,0.5-1.1,0.7c-0.1,0-0.1,0.1-0.2,0.1
		c-0.4,0.2-0.8,0.4-1.2,0.6c-0.1,0-0.1,0.1-0.2,0.1c-0.4,0.2-0.9,0.4-1.4,0.6H63.8c-0.5-0.2-0.9-0.4-1.4-0.6c-0.1,0-0.1-0.1-0.2-0.1
		c-0.4-0.2-0.8-0.4-1.2-0.6c-0.1,0-0.1-0.1-0.2-0.1c-0.4-0.2-0.7-0.5-1.1-0.7l-0.1-0.1c-0.3-0.3-0.6-0.5-0.9-0.8l-0.1-0.1
		c-0.3-0.3-0.6-0.6-0.8-0.9c-0.1-0.1-0.1-0.1-0.1-0.2c-0.3-0.3-0.5-0.6-0.7-0.9l-0.1-0.1c-0.2-0.3-0.4-0.6-0.6-0.9c0,0,0,0,0-0.1
		c-0.2-0.3-0.4-0.6-0.5-0.9c0-0.1-0.1-0.1-0.1-0.2c-0.2-0.3-0.3-0.6-0.4-0.9c0-0.1,0-0.1-0.1-0.2c-0.1-0.3-0.3-0.6-0.4-0.9l0,0
		c-0.1-0.3-0.2-0.6-0.3-0.9V36c-0.1-0.3-0.2-0.6-0.2-0.8v-0.1c-0.1-0.3-0.1-0.5-0.2-0.8c0,0,0,0,0-0.1C54,34,54,33.7,54,33.5v-0.1
		c0-0.2-0.1-0.4-0.1-0.6v-0.1c0-0.1,0-0.2,0-0.3H54h39.8h0.1C93.5,32.7,93.5,32.8,93.5,33C93.5,32.9,93.5,33,93.5,33z M81.4,49.5
		H65.7c-0.5,0-0.9-0.2-1.2-0.6c-0.2-0.3-0.3-0.6-0.3-0.9h18.6c0,0.3-0.1,0.7-0.3,0.9C82.3,49.3,81.9,49.5,81.4,49.5z"/>
	<g>
		<path class="st1" d="M49.6,4.9c0,0.4,0.4,0.7,0.8,0.6c0.4,0,0.7-0.4,0.6-0.8L50.7,2H59l-0.3,2.7c0,0.4,0.2,0.7,0.6,0.8h0.1
			c0.3,0,0.7-0.3,0.7-0.6l0.3-2.8c0.1-0.4,0-0.8-0.3-1.1c-0.2-0.3-0.6-0.5-1-0.5h-8.6c-0.4,0-0.7,0.2-1,0.5c-0.2,0.3-0.3,0.7-0.3,1
			L49.6,4.9z"/>
		<path class="st1" d="M59.5,49.5h-11c-1.8,0-3.3-1.5-3.3-3.3v-7.7h5.6c0.4,0,0.7-0.3,0.7-0.7s-0.2-0.6-0.6-0.6h-5.6v-6.7h3.5
			c0.4,0,0.7-0.3,0.7-0.7s-0.3-0.7-0.7-0.7h-3.5v-4.2c0-3.4,1.8-6.5,1.8-6.6c2.7-4.8,3.5-8.9,3.7-10.5h4.5c0.4,0,0.7-0.3,0.7-0.7
			s-0.3-0.7-0.7-0.7h-5.1h-0.1H50c-0.1,0-0.1,0-0.1,0.1c0,0-0.1,0-0.1,0.1l-0.1,0.1c0,0,0,0.1-0.1,0.1v0.1V7c0,0-0.5,4.9-3.6,10.6
			c-0.1,0.1-2,3.5-2,7.3v21.3c0,2.6,2.1,4.7,4.7,4.7h11c0.4,0,0.7-0.3,0.7-0.7S59.9,49.5,59.5,49.5z"/>
		<path class="st1" d="M62.2,14.1c-1.7-4-2-7.1-2-7.1V6.9c0-0.1,0-0.1,0-0.1s0,0-0.1-0.1c0-0.1-0.1-0.1-0.1-0.1s0,0-0.1,0
			s-0.1-0.1-0.2-0.1h-0.1h-0.1h-1.6c-0.4,0-0.7,0.3-0.7,0.7s0.3,0.7,0.7,0.7h1c0.2,1.1,0.7,3.7,2,6.9c0.1,0.3,0.4,0.4,0.6,0.4
			c0.1,0,0.2,0,0.3-0.1C62.2,14.9,62.3,14.5,62.2,14.1z"/>
	</g>
</g>
</svg>
