<?xml version="1.0" encoding="utf-8"?>
<!-- Generator: Adobe Illustrator 26.0.2, SVG Export Plug-In . SVG Version: 6.00 Build 0)  -->
<svg version="1.1" xmlns="http://www.w3.org/2000/svg" xmlns:xlink="http://www.w3.org/1999/xlink" x="0px" y="0px"
	 viewBox="0 0 140 95" style="enable-background:new 0 0 140 95;" xml:space="preserve">
<style type="text/css">
	.st0{fill:#E20613;}
	.st1{fill:none;stroke:#E20613;stroke-width:1.4;stroke-linecap:round;stroke-linejoin:round;stroke-miterlimit:10;}
	.st2{fill:#E20613;stroke:#606060;stroke-width:1.4;stroke-linecap:round;stroke-linejoin:round;stroke-miterlimit:10;}
	.st3{fill:#FFFFFF;stroke:#606060;stroke-width:1.4;stroke-linecap:round;stroke-linejoin:round;stroke-miterlimit:10;}
	.st4{fill:#606060;}
	.st5{opacity:0.15;}
	.st6{fill-rule:evenodd;clip-rule:evenodd;fill:#211E1F;}
	.st7{fill:#FFFFFF;}
	.st8{clip-path:url(#SVGID_00000183221349507612329300000017567175519056107684_);}
	.st9{fill:#E0232F;}
	.st10{fill:#FFDC00;}
	.st11{fill:#221F1F;}
	.st12{fill-rule:evenodd;clip-rule:evenodd;fill:#E0232F;}
	.st13{fill:#4F4F51;}
	.st14{fill:#4D4D4D;}
	.st15{fill:none;stroke:#606060;stroke-width:1.2;stroke-miterlimit:10;}
	.st16{fill:#E20613;stroke:#606060;stroke-width:1.2;stroke-miterlimit:10;}
	.st17{fill:none;stroke:#E20613;stroke-width:1.2;stroke-linecap:round;stroke-miterlimit:10;}
	.st18{fill:none;stroke:#606060;stroke-width:1.2;stroke-linecap:round;stroke-linejoin:round;stroke-miterlimit:10;}
	.st19{fill:none;stroke:#606060;stroke-width:1.2;stroke-linecap:round;stroke-miterlimit:10;}
	.st20{fill:#333333;}
	.st21{fill:none;stroke:#000000;stroke-width:1.2;stroke-miterlimit:10;}
	.st22{fill:none;stroke:#606060;stroke-miterlimit:10;}
	.st23{fill:#606060;stroke:#606060;stroke-width:0.5;stroke-miterlimit:10;}
	.st24{fill:none;stroke:#606060;stroke-width:1.4;stroke-linecap:round;stroke-linejoin:round;stroke-miterlimit:10;}
	.st25{fill:none;stroke:#464646;stroke-width:1.4;stroke-linecap:round;stroke-linejoin:round;stroke-miterlimit:10;}
	.st26{fill:#464646;}
	.st27{fill:#474747;}
	.st28{fill:#606060;stroke:#606060;stroke-width:0.15;stroke-miterlimit:10;}
	.st29{fill:none;stroke:#000000;stroke-width:1.4;stroke-linecap:round;stroke-miterlimit:10;}
	.st30{fill:#505050;}
	.st31{fill:#E20613;stroke:#606060;stroke-width:0.75;stroke-linecap:round;stroke-linejoin:round;stroke-miterlimit:10;}
	.st32{fill:none;stroke:#505050;stroke-width:2;stroke-linejoin:round;stroke-miterlimit:10;}
	.st33{fill:none;stroke:#505050;stroke-width:2;stroke-linecap:round;stroke-linejoin:round;stroke-miterlimit:10;}
	.st34{fill:none;}
	.st35{fill:#E20613;stroke:#606060;stroke-miterlimit:10;}
	.st36{fill:#FFFFFF;stroke:#47478B;stroke-width:3;stroke-linejoin:round;stroke-miterlimit:10;}
	.st37{fill:none;stroke:#47478B;stroke-width:3;stroke-linejoin:round;stroke-miterlimit:10;}
	.st38{fill:#F1F3FF;stroke:#47478B;stroke-width:3;stroke-linecap:round;stroke-linejoin:round;stroke-miterlimit:10;}
	.st39{fill:none;stroke:#354C5F;stroke-width:1.4;stroke-linecap:round;stroke-linejoin:round;stroke-miterlimit:10;}
	.st40{fill:#EA1F4B;}
	.st41{fill:none;stroke:#606060;stroke-width:1.4;stroke-linecap:round;stroke-miterlimit:10;}
	.st42{fill:#E20613;stroke:#606060;stroke-width:1.4;stroke-miterlimit:10;}
	.st43{fill:none;stroke:#606060;stroke-width:2.4902;stroke-linecap:round;stroke-miterlimit:10;}
	.st44{fill:none;stroke:#606060;stroke-width:2.4902;stroke-miterlimit:10;}
	.st45{fill:#606060;stroke:#606060;stroke-width:1.0376;stroke-miterlimit:10;}
	.st46{fill:none;stroke:#606060;stroke-width:2.9053;stroke-linecap:round;stroke-miterlimit:10;}
	.st47{fill:#E20613;stroke:#606060;stroke-width:2.9053;stroke-miterlimit:10;}
	.st48{fill:#E20613;stroke:#606060;stroke-width:1.0376;stroke-miterlimit:10;}
	.st49{fill:none;stroke:#505050;stroke-width:2.9053;stroke-linecap:round;stroke-linejoin:round;stroke-miterlimit:10;}
	.st50{fill:#E20613;stroke:#505050;stroke-width:2.9053;stroke-linecap:round;stroke-linejoin:round;stroke-miterlimit:10;}
	.st51{fill:#E20613;stroke:#606060;stroke-width:2.9053;stroke-linecap:round;stroke-linejoin:round;stroke-miterlimit:10;}
	.st52{fill:none;stroke:#606060;stroke-width:2.9053;stroke-linecap:round;stroke-linejoin:round;stroke-miterlimit:10;}
	.st53{fill:#E20613;stroke:#606060;stroke-width:2.9053;stroke-linejoin:round;stroke-miterlimit:10;}
	.st54{fill:#FFFFFF;stroke:#606060;stroke-width:2.9053;stroke-linecap:round;stroke-linejoin:round;stroke-miterlimit:10;}
	.st55{fill:none;stroke:#E20613;stroke-width:2.9053;stroke-linecap:round;stroke-linejoin:round;stroke-miterlimit:10;}
	.st56{fill:#E20613;stroke:#606060;stroke-width:2.4902;stroke-linecap:round;stroke-miterlimit:10;}
	.st57{fill:#E20613;stroke:#606060;stroke-width:1.5564;stroke-linecap:round;stroke-linejoin:round;stroke-miterlimit:10;}
	.st58{fill:none;stroke:#606060;stroke-width:2.0752;stroke-linecap:round;stroke-miterlimit:10;}
	.st59{fill:#E20613;stroke:#606060;stroke-width:2.4902;stroke-linecap:round;stroke-linejoin:round;stroke-miterlimit:10;}
	.st60{fill:none;stroke:#606060;stroke-width:2.4902;stroke-linecap:round;stroke-linejoin:round;stroke-miterlimit:10;}
	.st61{fill:none;stroke:#606060;stroke-width:2.0752;stroke-linecap:round;stroke-linejoin:round;stroke-miterlimit:10;}
</style>
<g id="Frame">
</g>
<g id="Layer_1">
	<g>
		<g>
			<path class="st4" d="M21.3,66h-1.8v4.2h-2.2v-11h4c2.6,0,4,1.5,4,3.4C25.3,64.3,24.1,66,21.3,66z M21.2,64.2
				c1.2,0,1.8-0.6,1.8-1.6c0-1-0.5-1.6-1.8-1.6h-1.7v3.2H21.2z"/>
			<path class="st4" d="M30.2,61.4c1.4,0,2.4,0.7,2.9,1.4v-1.2h2.2v8.7h-2.2v-1.3c-0.5,0.8-1.5,1.4-2.9,1.4c-2.2,0-4-1.8-4-4.5
				S28,61.4,30.2,61.4z M30.8,63.3c-1.2,0-2.3,0.9-2.3,2.5c0,1.6,1.1,2.6,2.3,2.6c1.2,0,2.3-0.9,2.3-2.6
				C33.1,64.2,32,63.3,30.8,63.3z"/>
			<path class="st4" d="M39.7,70.2h-2.2v-8.7h2.2v1.4c0.5-0.9,1.5-1.5,2.7-1.5v2.3h-0.6c-1.3,0-2.1,0.5-2.1,2.2V70.2z"/>
			<path class="st4" d="M47.2,61.4c1.4,0,2.4,0.7,2.9,1.4v-1.2h2.2v8.7h-2.2v-1.3c-0.5,0.8-1.5,1.4-2.9,1.4c-2.2,0-4-1.8-4-4.5
				S45,61.4,47.2,61.4z M47.8,63.3c-1.2,0-2.3,0.9-2.3,2.5c0,1.6,1.1,2.6,2.3,2.6c1.2,0,2.3-0.9,2.3-2.6
				C50.1,64.2,49,63.3,47.8,63.3z"/>
			<path class="st4" d="M62,70.3c-2.5,0-4.4-1.8-4.4-4.5c0-2.7,1.8-4.5,4.4-4.5c2.5,0,4.3,1.7,4.3,4.3c0,0.3,0,0.6-0.1,0.8h-6.4
				c0.1,1.3,1,2,2.1,2c0.9,0,1.5-0.5,1.7-1.1h2.4C65.6,69.1,64.1,70.3,62,70.3z M59.9,65H64c0-1.1-0.9-1.9-2.1-1.9
				C60.9,63.2,60,63.8,59.9,65z"/>
			<path class="st4" d="M67.9,58.6h2.2v11.6h-2.2V58.6z"/>
			<path class="st4" d="M82.9,65.5h-4.7v4.7H76v-11h2.2v4.5h4.7v-4.5h2.2v11h-2.2V65.5z"/>
			<path class="st4" d="M91.1,70.3c-2.5,0-4.4-1.8-4.4-4.5c0-2.7,2-4.5,4.5-4.5c2.5,0,4.5,1.7,4.5,4.5
				C95.6,68.6,93.6,70.3,91.1,70.3z M91.1,68.4c1.2,0,2.3-0.8,2.3-2.6c0-1.7-1.1-2.6-2.2-2.6s-2.2,0.8-2.2,2.6
				C88.9,67.6,89.9,68.4,91.1,68.4z"/>
			<path class="st4" d="M100.7,61.4c1.4,0,2.4,0.6,2.9,1.4v-1.2h2.2v8.8c0,2.4-1.4,4.2-4.3,4.2c-2.4,0-4.2-1.2-4.4-3.2h2.2
				c0.2,0.8,1,1.3,2.1,1.3c1.2,0,2.2-0.7,2.2-2.3v-1.4c-0.5,0.8-1.5,1.4-2.9,1.4c-2.2,0-4-1.8-4-4.5S98.5,61.4,100.7,61.4z
				 M101.2,63.3c-1.2,0-2.3,0.9-2.3,2.5c0,1.6,1.1,2.6,2.3,2.6c1.2,0,2.3-0.9,2.3-2.6C103.5,64.2,102.4,63.3,101.2,63.3z"/>
			<path class="st4" d="M111.3,61.4c1.4,0,2.4,0.7,2.9,1.4v-1.2h2.2v8.7h-2.2v-1.3c-0.5,0.8-1.5,1.4-2.9,1.4c-2.2,0-4-1.8-4-4.5
				S109.1,61.4,111.3,61.4z M111.9,63.3c-1.2,0-2.3,0.9-2.3,2.5c0,1.6,1.1,2.6,2.3,2.6c1.2,0,2.3-0.9,2.3-2.6
				C114.2,64.2,113.1,63.3,111.9,63.3z"/>
			<path class="st4" d="M120.8,70.2h-2.2v-8.7h2.2v1.4c0.5-0.9,1.5-1.5,2.7-1.5v2.3h-0.6c-1.3,0-2.1,0.5-2.1,2.2V70.2z"/>
		</g>
	</g>
	<circle class="st4" cx="43.4" cy="19.3" r="0.8"/>
	<circle class="st4" cx="44.4" cy="23.3" r="0.8"/>
	<circle class="st4" cx="40.5" cy="21.6" r="0.8"/>
	<path class="st0" d="M71.5,8.3V5.2c0-0.8-0.7-1.5-1.5-1.5h-0.8V2.2c0-0.8-0.7-1.5-1.5-1.5h-1.5c-0.8,0-1.5,0.7-1.5,1.5v1.5h1.5
		h-2.3c-0.8,0-1.5,0.7-1.5,1.5v3.1"/>
	<path class="st0" d="M60.4,35.8H49c0.4-0.5,0.8-1,1.2-1.5c2-2.6,2.3-5.3,2.3-5.3h6.9C59.3,30.4,60,32.8,60.4,35.8z"/>
	<path class="st4" d="M61,35.7c-0.2-1.1-0.4-2.1-0.5-3.1c-0.3-1.5-0.5-2.9-0.5-3.7v-3.1c0,0,0,0,0,0c0,0,0,0,0,0
		c-0.1-1.6,0.1-4.2,1.2-4.8c0.2-0.1,0.3-0.2,0.3-0.4c0-0.2,0-0.4-0.1-0.5l-2.3-3.1c-0.1-0.2-0.3-0.2-0.5-0.2H47.2
		c-0.8,0-1.5,0.7-1.5,1.5v1.9c0,0.8,0.7,1.5,1.5,1.5h1.4c0,0,0.6,0,1.3,0.3l-1.7,1.7c-0.2,0.2-0.2,0.6,0,0.8
		c0.1,0.1,0.3,0.2,0.4,0.2s0.3-0.1,0.4-0.2l1.9-1.9c0.6,0.7,0.9,1.7,0.9,2.9c0,0,0,0,0,0v3c0,0.3-0.4,2.7-2.2,5l-0.5,0.7
		c-0.2,0.3-0.5,0.6-0.7,0.9c0,0,0,0,0,0c-1.4,1.9-2.7,4-2.7,8v1.5c0,1.9,1.6,3.7,3.3,3.7h8.7c2,0,3.7-1.6,3.7-3.7v-3.8
		C61.5,39.5,61.3,37.7,61,35.7z M48.8,20.7c-0.1,0-0.2,0-0.2,0h-1.4c-0.2,0-0.3-0.2-0.3-0.3v-1.9c0-0.2,0.1-0.3,0.3-0.3h1.6V20.7z
		 M51.6,21.9c-0.1-0.1-0.1-0.1-0.2-0.2c0,0,0-0.1-0.1-0.1c-0.1-0.1-0.1-0.1-0.2-0.1c-0.4-0.3-0.8-0.4-1.1-0.6V18h8.3l1.8,2.3
		c-1.2,1.2-1.3,3.7-1.3,4.9h-0.9c-0.3,0-0.6,0.3-0.6,0.6s0.3,0.6,0.6,0.6h0.9v1.9h-5.7v-1.9h2.8c0.3,0,0.6-0.3,0.6-0.6
		s-0.3-0.6-0.6-0.6H53C52.9,23.8,52.5,22.7,51.6,21.9z M50.6,34.6c1.6-2.1,2.1-4.2,2.3-5.1h2.7v3.2c0,0.3,0.3,0.6,0.6,0.6
		s0.6-0.3,0.6-0.6v-3.2h1.9c0.1,0.9,0.3,2,0.5,3.3c0.1,0.7,0.3,1.5,0.4,2.3h-9.5L50.6,34.6z M60.3,44.9c0,1.4-1.1,2.5-2.5,2.5h-8.7
		c-1.1,0-2.1-1.2-2.1-2.5v-1.5c0-3.5,1.1-5.4,2.3-7h10.6c0.2,1.7,0.4,3.3,0.4,4.7V44.9z"/>
	<path class="st4" d="M92.3,20.6L81.4,9.6c-1.3-1.3-3-2-4.7-2h-4.5V5.2c0-1.2-1-2.1-2.1-2.1h-0.2V2.2c0-1.2-1-2.1-2.1-2.1h-1.5
		c-1.2,0-2.1,1-2.1,2.1v0.9h-0.2c-1.2,0-2.1,1-2.1,2.1v2.5h-0.2c-2,0-3.7,1.6-3.7,3.7v3.1c0,0.3,0.3,0.6,0.6,0.6s0.6-0.3,0.6-0.6
		v-3.1c0-1.4,1.1-2.5,2.5-2.5h15c1.5,0,2.9,0.6,3.9,1.6l10.9,10.9c1,1,1.6,2.4,1.6,3.9v19.6c0,1.4-1.1,2.5-2.5,2.5h-9.9
		c-0.3,0-0.6,0.3-0.6,0.6s0.3,0.6,0.6,0.6h9.9c2,0,3.7-1.6,3.7-3.7V25.3C94.3,23.5,93.6,21.8,92.3,20.6z M63,5.2
		c0-0.5,0.4-0.9,0.9-0.9h2.3c0.3,0,0.6-0.3,0.6-0.6s-0.3-0.6-0.6-0.6h-0.9V2.2c0-0.5,0.4-0.9,0.9-0.9h1.5c0.5,0,0.9,0.4,0.9,0.9v1.5
		c0,0.3,0.3,0.6,0.6,0.6H70c0.5,0,0.9,0.4,0.9,0.9v2.5h-8V5.2z"/>
	<g>
		<path class="st4" d="M86,27.2c-0.8,0-1.5-0.3-2-0.8l-8.3-8.3c-1.1-1.1-1.2-2.9-0.3-4c0.5-0.6,1.3-1,2.1-1c0.8,0,1.6,0.3,2.2,0.8
			l8.3,8.3c0.6,0.6,1,1.5,0.9,2.4c0,0.8-0.4,1.5-1,2C87.3,27,86.7,27.2,86,27.2z M77.6,14.2C77.6,14.2,77.6,14.2,77.6,14.2
			c-0.6,0-1,0.2-1.3,0.6c-0.6,0.7-0.5,1.7,0.2,2.4l8.3,8.3c0.6,0.6,1.6,0.6,2.3,0.1c0.3-0.3,0.5-0.7,0.6-1.2c0-0.5-0.2-1.1-0.6-1.5
			l-8.3-8.3C78.5,14.4,78.1,14.2,77.6,14.2z"/>
	</g>
	<polyline class="st0" points="74,33.1 75.7,33.1 75.7,35.4 65.9,35.4 65.9,33.1 72,33.1 	"/>
	<path class="st4" d="M77.5,32.5c0.5-0.5,0.7-1.1,0.7-1.8v-1.3c0-0.7-0.3-1.3-0.7-1.8l-2-2c-0.3-0.3-0.7-0.5-1.1-0.5h-0.8v-1.7
		c0-0.8-0.6-1.4-1.4-1.4h-3.1c-0.8,0-1.4,0.6-1.4,1.4v1.7h-0.8c-0.4,0-0.8,0.2-1.1,0.5l-2,2c-0.5,0.5-0.7,1.1-0.7,1.8v1.3
		c0,0.7,0.3,1.3,0.7,1.8l0.6,0.6c0.7,0.7,0.7,1.8,0,2.5L64,36.2c-0.5,0.5-0.7,1.1-0.7,1.8v8.2c0,1.4,1.1,2.5,2.5,2.5h10
		c1.4,0,2.5-1.1,2.5-2.5v-8.2c0-0.7-0.3-1.3-0.7-1.8l-0.6-0.6c-0.7-0.7-0.7-1.8,0-2.5L77.5,32.5z M69.1,23.6c0-0.1,0.1-0.2,0.2-0.2
		h3.1c0.1,0,0.2,0.1,0.2,0.2v1.7h-3.4V23.6z M76.7,37c0.2,0.2,0.4,0.6,0.4,0.9v8.2c0,0.7-0.6,1.3-1.3,1.3h-10
		c-0.7,0-1.3-0.6-1.3-1.3v-8.2c0-0.3,0.1-0.7,0.4-0.9l0.6-0.6c0.1-0.1,0.3-0.3,0.4-0.4c0,0,0,0,0.1,0h9.9c0,0,0,0,0,0
		c0.1,0.2,0.2,0.3,0.3,0.4L76.7,37z M76.1,32.2c-0.1,0.1-0.1,0.2-0.2,0.3c0,0-0.1,0-0.1,0H74c-0.3,0-0.6,0.3-0.6,0.6
		s0.3,0.6,0.6,0.6h1.1v1.1h-8.7v-1.1H72c0.3,0,0.6-0.3,0.6-0.6s-0.3-0.6-0.6-0.6h-6.2c-0.1,0-0.1,0-0.2,0c-0.1-0.1-0.1-0.2-0.2-0.3
		l-0.6-0.6c-0.2-0.2-0.4-0.6-0.4-0.9v-1.3c0-0.3,0.1-0.7,0.4-0.9l2-2c0.1-0.1,0.1-0.1,0.2-0.1h7.4c0.1,0,0.2,0,0.2,0.1l2,2
		c0.2,0.2,0.4,0.6,0.4,0.9v1.3c0,0.3-0.1,0.7-0.4,0.9L76.1,32.2z"/>
	<g>
		<path class="st4" d="M53.7,14.9c-0.2,0-0.3-0.1-0.4-0.2l-0.7-1.1l-1.1-0.7c-0.1-0.1-0.2-0.2-0.2-0.4c0-0.2,0.1-0.3,0.2-0.4
			l1.1-0.7l0.7-1.1c0.1-0.1,0.2-0.2,0.4-0.2l0,0c0.2,0,0.3,0.1,0.4,0.2l0.7,1.1l1.1,0.7c0.1,0.1,0.2,0.2,0.2,0.4
			c0,0.2-0.1,0.3-0.2,0.4l-1.1,0.7l-0.7,1.1C54,14.8,53.8,14.9,53.7,14.9z M52.6,12.4l0.5,0.4c0.1,0,0.1,0.1,0.1,0.1l0.4,0.5
			l0.4-0.5c0-0.1,0.1-0.1,0.1-0.1l0.5-0.4l-0.5-0.4c-0.1,0-0.1-0.1-0.1-0.1l-0.4-0.5l-0.4,0.5c0,0.1-0.1,0.1-0.1,0.1L52.6,12.4z"/>
	</g>
	<g>
		<path class="st4" d="M50.5,11.8c-0.2,0-0.4-0.1-0.5-0.3l-0.7-1.8L47.6,9c-0.2-0.1-0.3-0.3-0.3-0.5s0.1-0.4,0.3-0.5l1.8-0.7
			l0.7-1.8c0.1-0.2,0.3-0.3,0.5-0.3l0,0c0.2,0,0.4,0.1,0.5,0.3l0.7,1.8l1.8,0.7c0.2,0.1,0.3,0.3,0.3,0.5S53.7,8.9,53.5,9l-1.8,0.7
			L51,11.5C50.9,11.6,50.7,11.8,50.5,11.8z M49.2,8.5l0.8,0.3c0.1,0.1,0.2,0.2,0.3,0.3l0.3,0.8l0.3-0.8C50.9,9,51,8.9,51.1,8.9
			l0.8-0.3l-0.8-0.3c-0.1-0.1-0.2-0.2-0.3-0.3l-0.3-0.8l-0.3,0.8c-0.1,0.1-0.2,0.2-0.3,0.3L49.2,8.5z"/>
	</g>
	<g>
		<circle class="st4" cx="72.3" cy="17.4" r="0.8"/>
	</g>
	<g>
		<circle class="st4" cx="70.8" cy="19.8" r="1.6"/>
	</g>
</g>
</svg>
